<?xml version="1.0" encoding="UTF-8"?>
<!DOCTYPE svg PUBLIC "-//W3C//DTD SVG 1.1//EN" "http://www.w3.org/Graphics/SVG/1.1/DTD/svg11.dtd">
<!-- Creator: CorelDRAW X5 -->
<svg xmlns="http://www.w3.org/2000/svg" xml:space="preserve" width="25.654mm" height="12.1072mm" style="shape-rendering:geometricPrecision; text-rendering:geometricPrecision; image-rendering:optimizeQuality; fill-rule:evenodd; clip-rule:evenodd"
viewBox="0 0 25.654 12.1072"
 xmlns:xlink="http://www.w3.org/1999/xlink">
 <defs>
  <style type="text/css">
   <![CDATA[
    .str1 {stroke:black;stroke-width:0.1764}
    .str0 {stroke:black;stroke-width:0.4233}
    .fil1 {fill:none}
    .fil8 {fill:black}
    .fil7 {fill:#1A1A1A}
    .fil6 {fill:#333333}
    .fil5 {fill:#4D4D4D}
    .fil4 {fill:#666666}
    .fil3 {fill:gray}
    .fil2 {fill:#999999}
    .fil0 {fill:black;fill-rule:nonzero}
   ]]>
  </style>
 </defs>
 <g id="Layer_x0020_1">
  <metadata id="CorelCorpID_0Corel-Layer"/>
  <g id="_411088848">
   <path id="_278981376" class="fil0" d="M2.4913 10.9709l-1.4394 0 -0.3281 1.1409 -0.6392 0 1.3896 -4.5149 0.6075 0 1.3769 4.5149 -0.6393 0 -0.328 -1.1409zm-1.2933 -0.4995l1.1504 0 -0.5641 -1.9717 -0.0191 0 -0.5672 1.9717z"/>
   <polygon id="_2789813761" class="fil0" points="4.7571,7.5969 5.8112,11.281 5.8303,11.281 6.8876,7.5969 7.6993,7.5969 7.6993,12.1118 7.077,12.1118 7.077,10.3782 7.132,8.6415 7.1141,8.6383 6.0282,12.1118 5.6133,12.1118 4.5307,8.6415 4.5127,8.6447 4.5709,10.3782 4.5709,12.1118 3.9475,12.1118 3.9475,7.5969 "/>
   <path id="_27898137612" class="fil0" d="M8.5619 12.1118l0 -4.5149 1.2594 0c0.4255,0 0.7578,0.1016 0.9959,0.3038 0.2392,0.2032 0.3588,0.5069 0.3588,0.9123 0,0.2148 -0.054,0.4043 -0.163,0.5683 -0.109,0.1651 -0.2593,0.2857 -0.4509,0.3619 0.2435,0.054 0.4308,0.181 0.562,0.3832 0.1323,0.201 0.1979,0.4371 0.1979,0.708 0,0.4159 -0.1174,0.7324 -0.3524,0.9504 -0.2349,0.218 -0.5588,0.327 -0.9715,0.327l-1.4362 0zm0.6297 -2.105l0 1.6277 0.8065 0c0.2222,0 0.3947,-0.0688 0.5154,-0.2064 0.1217,-0.1376 0.182,-0.3344 0.182,-0.5905 0,-0.254 -0.0519,-0.4562 -0.1556,-0.6065 -0.1026,-0.1492 -0.2624,-0.2243 -0.4773,-0.2243l-0.871 0zm0 -0.453l0.6911 0c0.2064,0 0.3694,-0.0624 0.4868,-0.1873 0.1175,-0.1249 0.1768,-0.3059 0.1768,-0.5419 0,-0.2476 -0.0614,-0.4339 -0.1842,-0.5577 -0.1227,-0.1239 -0.3037,-0.1863 -0.5408,-0.1863l-0.6297 0 0 1.4732z"/>
   <polygon id="_278981376123" class="fil0" points="12.7105,12.1118 12.084,12.1118 12.084,7.5969 12.7105,7.5969 "/>
   <path id="_411084192" class="fil0" d="M15.97 7.7198l0 4.3152 -2.3565 0 0 -12.0396 4.1853 0c1.1994,0 2.1477,0.3556 2.8448,1.0668 0.6943,0.7112 1.0414,1.6426 1.0414,2.794 0,1.1599 -0.35,2.0913 -1.047,2.7997 -0.6971,0.7083 -1.6426,1.0639 -2.8392,1.0639l-1.8288 0zm0 -1.8852l1.8288 0c0.4995,0 0.8834,-0.1835 1.1486,-0.5532 0.2653,-0.3697 0.398,-0.8382 0.398,-1.4083 0,-0.5729 -0.1327,-1.047 -0.3951,-1.4252 -0.2597,-0.3781 -0.6463,-0.5672 -1.1515,-0.5672l-1.8288 0 0 3.9539z"/>
   <polygon id="_4110841921" class="fil0" points="25.653,12.035 23.3134,12.035 23.3134,-0.0046 25.653,-0.0046 "/>
   <rect id="_411083832" class="fil1 str0" transform="matrix(2.64845E-014 1 -1 2.64845E-014 12.789 0.5564)" width="5.842" height="11.938"/>
   <rect id="_411084816" class="fil1 str1" transform="matrix(2.64845E-014 1 -1 2.64845E-014 11.8999 1.4033)" width="0.5927" height="1.6933"/>
   <rect id="_421232000" class="fil1 str1" transform="matrix(2.64845E-014 1 -1 2.64845E-014 10.2066 1.4033)" width="0.5927" height="1.6933"/>
   <rect id="_411080736" class="fil1 str1" transform="matrix(2.64845E-014 1 -1 2.64845E-014 8.5133 1.4033)" width="0.5927" height="1.6933"/>
   <rect id="_411085656" class="fil1 str1" transform="matrix(2.64845E-014 1 -1 2.64845E-014 6.82 1.4033)" width="0.5927" height="1.6933"/>
   <rect id="_411086256" class="fil2 str1" transform="matrix(2.64845E-014 1 -1 2.64845E-014 5.1267 1.4033)" width="0.5927" height="1.6933"/>
   <rect id="_411086904" class="fil1 str1" transform="matrix(2.64845E-014 1 -1 2.64845E-014 3.4334 1.4033)" width="0.5927" height="1.6933"/>
   <rect id="_421229456" class="fil1 str1" transform="matrix(2.64845E-014 1 -1 2.64845E-014 11.8999 1.9959)" width="0.5927" height="1.6933"/>
   <rect id="_421230632" class="fil1 str1" transform="matrix(2.64845E-014 1 -1 2.64845E-014 10.2066 1.9959)" width="0.5927" height="1.6933"/>
   <rect id="_411080856" class="fil1 str1" transform="matrix(2.64845E-014 1 -1 2.64845E-014 8.5133 1.9959)" width="0.5927" height="1.6933"/>
   <rect id="_411082344" class="fil3 str1" transform="matrix(2.64845E-014 1 -1 2.64845E-014 6.82 1.9959)" width="0.5927" height="1.6933"/>
   <rect id="_411086136" class="fil3 str1" transform="matrix(2.64845E-014 1 -1 2.64845E-014 5.1267 1.9959)" width="0.5927" height="1.6933"/>
   <rect id="_411086784" class="fil1 str1" transform="matrix(2.64845E-014 1 -1 2.64845E-014 3.4334 1.9959)" width="0.5927" height="1.6933"/>
   <rect id="_278981232" class="fil1 str1" transform="matrix(2.64845E-014 1 -1 2.64845E-014 11.8999 2.5885)" width="0.5927" height="1.6933"/>
   <rect id="_278977488" class="fil1 str1" transform="matrix(2.64845E-014 1 -1 2.64845E-014 10.2066 2.5885)" width="0.5927" height="1.6933"/>
   <rect id="_411080976" class="fil1 str1" transform="matrix(2.64845E-014 1 -1 2.64845E-014 8.5133 2.5885)" width="0.5927" height="1.6933"/>
   <rect id="_411083280" class="fil4 str1" transform="matrix(2.64845E-014 1 -1 2.64845E-014 6.82 2.5885)" width="0.5927" height="1.6933"/>
   <rect id="_411086016" class="fil4 str1" transform="matrix(2.64845E-014 1 -1 2.64845E-014 5.1267 2.5885)" width="0.5927" height="1.6933"/>
   <rect id="_411086664" class="fil1 str1" transform="matrix(2.64845E-014 1 -1 2.64845E-014 3.4334 2.5885)" width="0.5927" height="1.6933"/>
   <rect id="_421231784" class="fil1 str1" transform="matrix(2.64845E-014 1 -1 2.64845E-014 11.8999 3.1811)" width="0.5927" height="1.6933"/>
   <rect id="_421220936" class="fil1 str1" transform="matrix(2.64845E-014 1 -1 2.64845E-014 10.2066 3.1811)" width="0.5927" height="1.6933"/>
   <rect id="_411081096" class="fil3 str1" transform="matrix(2.64845E-014 1 -1 2.64845E-014 8.5133 3.1811)" width="0.5927" height="1.6933"/>
   <rect id="_411081984" class="fil5 str1" transform="matrix(2.64845E-014 1 -1 2.64845E-014 6.82 3.1811)" width="0.5927" height="1.6933"/>
   <rect id="_411085896" class="fil5 str1" transform="matrix(2.64845E-014 1 -1 2.64845E-014 5.1267 3.1811)" width="0.5927" height="1.6933"/>
   <rect id="_411086544" class="fil1 str1" transform="matrix(2.64845E-014 1 -1 2.64845E-014 3.4334 3.1811)" width="0.5927" height="1.6933"/>
   <rect id="_421230440" class="fil1 str1" transform="matrix(2.64845E-014 1 -1 2.64845E-014 11.8999 3.7737)" width="0.5927" height="1.6933"/>
   <rect id="_411083112" class="fil1 str1" transform="matrix(2.64845E-014 1 -1 2.64845E-014 10.2066 3.7737)" width="0.5927" height="1.6933"/>
   <rect id="_411081216" class="fil4 str1" transform="matrix(2.64845E-014 1 -1 2.64845E-014 8.5133 3.7737)" width="0.5927" height="1.6933"/>
   <rect id="_411085296" class="fil6 str1" transform="matrix(2.64845E-014 1 -1 2.64845E-014 6.82 3.7737)" width="0.5927" height="1.6933"/>
   <rect id="_411085776" class="fil6 str1" transform="matrix(2.64845E-014 1 -1 2.64845E-014 5.1267 3.7737)" width="0.5927" height="1.6933"/>
   <rect id="_411086424" class="fil1 str1" transform="matrix(2.64845E-014 1 -1 2.64845E-014 3.4334 3.7737)" width="0.5927" height="1.6933"/>
   <rect id="_421231280" class="fil1 str1" transform="matrix(2.64845E-014 1 -1 2.64845E-014 11.8999 4.3663)" width="0.5927" height="1.6933"/>
   <rect id="_421230056" class="fil1 str1" transform="matrix(2.64845E-014 1 -1 2.64845E-014 10.2066 4.3663)" width="0.5927" height="1.6933"/>
   <rect id="_411084408" class="fil5 str1" transform="matrix(2.64845E-014 1 -1 2.64845E-014 8.5133 4.3663)" width="0.5927" height="1.6933"/>
   <rect id="_421225304" class="fil7 str1" transform="matrix(2.64845E-014 1 -1 2.64845E-014 6.82 4.3663)" width="0.5927" height="1.6933"/>
   <rect id="_421219880" class="fil7 str1" transform="matrix(2.64845E-014 1 -1 2.64845E-014 5.1267 4.3663)" width="0.5927" height="1.6933"/>
   <rect id="_421224008" class="fil1 str1" transform="matrix(2.64845E-014 1 -1 2.64845E-014 3.4334 4.3663)" width="0.5927" height="1.6933"/>
   <rect id="_421216376" class="fil1 str1" transform="matrix(2.64845E-014 1 -1 2.64845E-014 11.8999 4.9589)" width="0.5927" height="1.6933"/>
   <rect id="_421226264" class="fil1 str1" transform="matrix(2.64845E-014 1 -1 2.64845E-014 10.2066 4.9589)" width="0.5927" height="1.6933"/>
   <rect id="_421228304" class="fil6 str1" transform="matrix(2.64845E-014 1 -1 2.64845E-014 8.5133 4.9589)" width="0.5927" height="1.6933"/>
   <rect id="_421224128" class="fil8 str1" transform="matrix(2.64845E-014 1 -1 2.64845E-014 6.82 4.9589)" width="0.5927" height="1.6933"/>
   <rect id="_421220720" class="fil8 str1" transform="matrix(2.64845E-014 1 -1 2.64845E-014 5.1267 4.9589)" width="0.5927" height="1.6933"/>
   <rect id="_421220888" class="fil1 str1" transform="matrix(2.64845E-014 1 -1 2.64845E-014 3.4334 4.9589)" width="0.5927" height="1.6933"/>
  </g>
 </g>
</svg>
