<?xml version="1.0" encoding="UTF-8"?>
<!DOCTYPE svg PUBLIC "-//W3C//DTD SVG 1.1//EN" "http://www.w3.org/Graphics/SVG/1.1/DTD/svg11.dtd">
<!-- Creator: CorelDRAW X5 -->
<svg xmlns="http://www.w3.org/2000/svg" xml:space="preserve" width="295.91mm" height="35.56mm" style="shape-rendering:geometricPrecision; text-rendering:geometricPrecision; image-rendering:optimizeQuality; fill-rule:evenodd; clip-rule:evenodd"
viewBox="0 0 295.91 35.56"
 xmlns:xlink="http://www.w3.org/1999/xlink">
 <defs>
  <style type="text/css">
   <![CDATA[
    .fil0 {fill:none}
    .fil37 {fill:none;fill-rule:nonzero}
    .fil38 {fill:#0F1418}
    .fil44 {fill:#F57C00}
    .fil39 {fill:#FF0050}
    .fil42 {fill:#FFA000}
    .fil46 {fill:#FFCA28}
    .fil40 {fill:white}
    .fil5 {fill:black;fill-rule:nonzero}
    .fil32 {fill:#112A26;fill-rule:nonzero}
    .fil35 {fill:#28540C;fill-rule:nonzero}
    .fil34 {fill:#2F5B05;fill-rule:nonzero}
    .fil12 {fill:#449374;fill-rule:nonzero}
    .fil33 {fill:#C6DB5D;fill-rule:nonzero}
    .fil48 {fill:#A52714;fill-opacity:0.200000}
    .fil47 {fill:white;fill-opacity:0.200000}
    .fil50 {fill:black;fill-opacity:0.541176}
    .fil45 {fill:url(#id12)}
    .fil41 {fill:url(#id13)}
    .fil51 {fill:url(#id14)}
    .fil49 {fill:url(#id15)}
    .fil43 {fill:url(#id16)}
    .fil14 {fill:url(#id17);fill-rule:nonzero}
    .fil16 {fill:url(#id18);fill-rule:nonzero}
    .fil30 {fill:url(#id19);fill-rule:nonzero}
    .fil11 {fill:url(#id20);fill-rule:nonzero}
    .fil15 {fill:url(#id21);fill-rule:nonzero}
    .fil6 {fill:url(#id22);fill-rule:nonzero}
    .fil1 {fill:url(#id23);fill-rule:nonzero}
    .fil21 {fill:url(#id24);fill-rule:nonzero}
    .fil31 {fill:url(#id25);fill-rule:nonzero}
    .fil9 {fill:url(#id26);fill-rule:nonzero}
    .fil24 {fill:url(#id27);fill-rule:nonzero}
    .fil20 {fill:url(#id28);fill-rule:nonzero}
    .fil23 {fill:url(#id29);fill-rule:nonzero}
    .fil19 {fill:url(#id30);fill-rule:nonzero}
    .fil17 {fill:url(#id31);fill-rule:nonzero}
    .fil7 {fill:url(#id32);fill-rule:nonzero}
    .fil26 {fill:url(#id33);fill-rule:nonzero}
    .fil2 {fill:url(#id34);fill-rule:nonzero}
    .fil8 {fill:url(#id35);fill-rule:nonzero}
    .fil4 {fill:url(#id36);fill-rule:nonzero}
    .fil25 {fill:url(#id37);fill-rule:nonzero}
    .fil36 {fill:url(#id38);fill-rule:nonzero}
    .fil18 {fill:url(#id39);fill-rule:nonzero}
    .fil13 {fill:url(#id40);fill-rule:nonzero}
    .fil10 {fill:url(#id41);fill-rule:nonzero}
    .fil22 {fill:url(#id42);fill-rule:nonzero}
    .fil29 {fill:url(#id43);fill-rule:nonzero}
    .fil27 {fill:url(#id44);fill-rule:nonzero}
    .fil28 {fill:url(#id45);fill-rule:nonzero}
    .fil3 {fill:url(#id46);fill-rule:nonzero}
   ]]>
  </style>
   <clipPath id="id0" style="clip-rule:nonzero">
    <path d="M295.91 35.56l-295.91 0 0 -35.56 295.91 0 0 35.56z"/>
   </clipPath>
    <mask id="id1">
  <linearGradient id="id2" gradientUnits="userSpaceOnUse" x1="17.3578" y1="3.459" x2="17.3578" y2="9.7034">
   <stop offset="0" style="stop-opacity:0.101961; stop-color:white"/>
   <stop offset="1" style="stop-opacity:0.101961; stop-color:white"/>
  </linearGradient>
     <rect style="fill:url(#id2)" x="2.8795" y="3.4209" width="28.9566" height="6.3206"/>
    </mask>
    <clipPath id="id3">
     <path d="M7.2128 13.3141c-0.0075,-0.0447 -0.0463,-0.0774 -0.0916,-0.0774 -0.0246,0 -0.0482,0.0098 -0.0656,0.0272l-0.4823 0.4837 -0.3797 -0.7228c-0.016,-0.0305 -0.0477,-0.0496 -0.0822,-0.0496 -0.0345,0 -0.0662,0.0191 -0.0822,0.0496l-0.2075 0.395 -0.5204 -0.9704c-0.0162,-0.0302 -0.0477,-0.0491 -0.0819,-0.0491 -0.0459,0 -0.0849,0.0335 -0.0919,0.0788l-0.5029 3.22 1.3451 0.7541c0.0415,0.0232 0.0884,0.0354 0.1359,0.0354 0.0476,0 0.0944,-0.0122 0.1359,-0.0354l1.3568 -0.7541 -0.3855 -2.385z"/>
    </clipPath>
      <mask id="id4">
  <linearGradient id="id5" gradientUnits="userSpaceOnUse" x1="7.5063" y1="15.6416" x2="2.7187" y2="13.2476">
   <stop offset="0" style="stop-opacity:1; stop-color:white"/>
   <stop offset="0.4" style="stop-opacity:0.501961; stop-color:white"/>
   <stop offset="0.8" style="stop-opacity:0; stop-color:white"/>
   <stop offset="1" style="stop-opacity:0.0784314; stop-color:white"/>
  </linearGradient>
       <rect style="fill:url(#id5)" x="3.1973" y="12.1762" width="3.8304" height="4.5368"/>
      </mask>
      <mask id="id6">
  <linearGradient id="id7" gradientUnits="userSpaceOnUse" x1="8.3417" y1="16.6749" x2="3.8811" y2="12.2143">
   <stop offset="0" style="stop-opacity:0.8; stop-color:white"/>
   <stop offset="0.501961" style="stop-opacity:0.211765; stop-color:white"/>
   <stop offset="1" style="stop-opacity:0; stop-color:white"/>
  </linearGradient>
       <rect style="fill:url(#id7)" x="3.843" y="12.1762" width="4.5368" height="4.5368"/>
      </mask>
      <mask id="id8">
  <linearGradient id="id9" gradientUnits="userSpaceOnUse" x1="4.2065" y1="12.5396" x2="8.0163" y2="16.3494">
   <stop offset="0" style="stop-opacity:0.101961; stop-color:white"/>
   <stop offset="1" style="stop-opacity:0; stop-color:white"/>
  </linearGradient>
       <rect style="fill:url(#id9)" x="4.3078" y="12.3622" width="3.6072" height="4.1646"/>
      </mask>
    <mask id="id10">
  <linearGradient id="id11" gradientUnits="userSpaceOnUse" x1="17.4368" y1="11.451" x2="17.4368" y2="17.6954">
   <stop offset="0" style="stop-opacity:0.101961; stop-color:white"/>
   <stop offset="1" style="stop-opacity:0.101961; stop-color:white"/>
  </linearGradient>
     <rect style="fill:url(#id11)" x="2.9585" y="11.4129" width="28.9566" height="6.3206"/>
    </mask>
  <linearGradient id="id12" gradientUnits="userSpaceOnUse" x1="8.3417" y1="16.6749" x2="3.8811" y2="12.2143">
   <stop offset="0" style="stop-color:#A52714"/>
   <stop offset="0.501961" style="stop-color:#A52714"/>
   <stop offset="1" style="stop-color:#A52714"/>
  </linearGradient>
  <linearGradient id="id13" gradientUnits="userSpaceOnUse" x1="17.3578" y1="3.459" x2="17.3578" y2="9.7034">
   <stop offset="0" style="stop-color:#BBBBBB"/>
   <stop offset="1" style="stop-color:black"/>
  </linearGradient>
  <linearGradient id="id14" gradientUnits="userSpaceOnUse" xlink:href="#id13" x1="17.4368" y1="11.451" x2="17.4368" y2="17.6954">
  </linearGradient>
  <linearGradient id="id15" gradientUnits="userSpaceOnUse" x1="4.3208" y1="12.6539" x2="7.902" y2="16.2351">
   <stop offset="0" style="stop-color:white"/>
   <stop offset="1" style="stop-color:white"/>
  </linearGradient>
  <linearGradient id="id16" gradientUnits="userSpaceOnUse" x1="7.0275" y1="15.4022" x2="3.1975" y2="13.487">
   <stop offset="0" style="stop-color:#A52714"/>
   <stop offset="0.4" style="stop-color:#A52714"/>
   <stop offset="0.8" style="stop-color:#A52714"/>
   <stop offset="1" style="stop-color:#A52714"/>
  </linearGradient>
  <linearGradient id="id17" gradientUnits="userSpaceOnUse" x1="222.658" y1="35.0572" x2="237.905" y2="22.6765">
   <stop offset="0" style="stop-color:#245B50"/>
   <stop offset="1" style="stop-color:#112A26"/>
  </linearGradient>
  <linearGradient id="id18" gradientUnits="userSpaceOnUse" x1="294.988" y1="29.4187" x2="290.247" y2="3.7609">
   <stop offset="0" style="stop-color:#182A3D"/>
   <stop offset="1" style="stop-color:#317960"/>
  </linearGradient>
  <linearGradient id="id19" gradientUnits="userSpaceOnUse" x1="249.012" y1="35.6441" x2="236.898" y2="14.3205">
   <stop offset="0" style="stop-color:#3A7B05"/>
   <stop offset="1" style="stop-color:#C6DB5D"/>
  </linearGradient>
  <linearGradient id="id20" gradientUnits="userSpaceOnUse" xlink:href="#id17" x1="266.785" y1="33.3392" x2="261.573" y2="-3.8093">
  </linearGradient>
  <linearGradient id="id21" gradientUnits="userSpaceOnUse" xlink:href="#id19" x1="291.351" y1="25.9886" x2="289.558" y2="0.5726">
  </linearGradient>
  <linearGradient id="id22" gradientUnits="userSpaceOnUse" x1="3.5604" y1="30.277" x2="11.5112" y2="32.2555">
   <stop offset="0" style="stop-color:#E9E46B"/>
   <stop offset="1" style="stop-color:#93C133"/>
  </linearGradient>
  <linearGradient id="id23" gradientUnits="userSpaceOnUse" x1="19.3022" y1="32.7367" x2="265.235" y2="4.1453">
   <stop offset="0" style="stop-color:#5D4089"/>
   <stop offset="0.988235" style="stop-color:#362D3E"/>
   <stop offset="1" style="stop-color:#362D3E"/>
  </linearGradient>
  <linearGradient id="id24" gradientUnits="userSpaceOnUse" xlink:href="#id19" x1="242.515" y1="28.0972" x2="237.238" y2="9.2328">
  </linearGradient>
  <linearGradient id="id25" gradientUnits="userSpaceOnUse" xlink:href="#id18" x1="247.571" y1="33.8617" x2="238.698" y2="21.6639">
  </linearGradient>
  <linearGradient id="id26" gradientUnits="userSpaceOnUse" x1="0.584" y1="33.9398" x2="0.4011" y2="21.5969">
   <stop offset="0" style="stop-color:#3A7B05"/>
   <stop offset="1" style="stop-color:#245B50"/>
  </linearGradient>
  <linearGradient id="id27" gradientUnits="userSpaceOnUse" xlink:href="#id19" x1="251.284" y1="31.896" x2="249.01" y2="14.0222">
  </linearGradient>
  <linearGradient id="id28" gradientUnits="userSpaceOnUse" xlink:href="#id26" x1="243.011" y1="25.4261" x2="242.728" y2="7.7772">
  </linearGradient>
  <linearGradient id="id29" gradientUnits="userSpaceOnUse" xlink:href="#id22" x1="278.321" y1="32.409" x2="277.46" y2="17.8507">
  </linearGradient>
  <linearGradient id="id30" gradientUnits="userSpaceOnUse" xlink:href="#id26" x1="291.378" y1="30.906" x2="289.997" y2="15.1437">
  </linearGradient>
  <linearGradient id="id31" gradientUnits="userSpaceOnUse" xlink:href="#id19" x1="254.123" y1="24.6753" x2="246.679" y2="3.0304">
  </linearGradient>
  <linearGradient id="id32" gradientUnits="userSpaceOnUse" xlink:href="#id22" x1="0.6459" y1="34.0324" x2="-0.8417" y2="34.3794">
  </linearGradient>
  <linearGradient id="id33" gradientUnits="userSpaceOnUse" xlink:href="#id19" x1="253.289" y1="30.9578" x2="249.814" y2="16.1181">
  </linearGradient>
  <linearGradient id="id34" gradientUnits="userSpaceOnUse" xlink:href="#id18" x1="252.822" y1="-11.4439" x2="-19.0055" y2="-143.429">
  </linearGradient>
  <linearGradient id="id35" gradientUnits="userSpaceOnUse" x1="2.4705" y1="33.1959" x2="5.0125" y2="23.1967">
   <stop offset="0" style="stop-color:#3A7B05"/>
   <stop offset="1" style="stop-color:#AABA38"/>
  </linearGradient>
  <linearGradient id="id36" gradientUnits="userSpaceOnUse" x1="16.9964" y1="30.0648" x2="13.6362" y2="15.7136">
   <stop offset="0" style="stop-color:#2F5B05"/>
   <stop offset="0.690196" style="stop-color:#346B05"/>
   <stop offset="1" style="stop-color:#3A7B05"/>
  </linearGradient>
  <linearGradient id="id37" gradientUnits="userSpaceOnUse" xlink:href="#id36" x1="249.765" y1="24.5302" x2="259.374" y2="21.397">
  </linearGradient>
  <linearGradient id="id38" gradientUnits="userSpaceOnUse" xlink:href="#id35" x1="287.914" y1="30.2496" x2="285.678" y2="20.4941">
  </linearGradient>
  <linearGradient id="id39" gradientUnits="userSpaceOnUse" xlink:href="#id17" x1="281.876" y1="17.0417" x2="273.438" y2="3.9913">
  </linearGradient>
  <linearGradient id="id40" gradientUnits="userSpaceOnUse" xlink:href="#id17" x1="225.409" y1="32.1432" x2="232.755" y2="25.5905">
  </linearGradient>
  <linearGradient id="id41" gradientUnits="userSpaceOnUse" xlink:href="#id17" x1="284.44" y1="16.2771" x2="290.174" y2="3.0139">
  </linearGradient>
  <linearGradient id="id42" gradientUnits="userSpaceOnUse" xlink:href="#id26" x1="290.416" y1="29.7155" x2="294.233" y2="22.2023">
  </linearGradient>
  <linearGradient id="id43" gradientUnits="userSpaceOnUse" xlink:href="#id19" x1="264.013" y1="27.7936" x2="267.574" y2="19.2897">
  </linearGradient>
  <linearGradient id="id44" gradientUnits="userSpaceOnUse" xlink:href="#id19" x1="261.496" y1="27.2808" x2="266.186" y2="18.6965">
  </linearGradient>
  <linearGradient id="id45" gradientUnits="userSpaceOnUse" xlink:href="#id36" x1="264.243" y1="22.0157" x2="270.337" y2="23.9772">
  </linearGradient>
  <radialGradient id="id46" gradientUnits="userSpaceOnUse" cx="313.774" cy="-189.37" r="89.3241" fx="313.774" fy="-189.37">
   <stop offset="0" style="stop-color:#E9E42A"/>
   <stop offset="1" style="stop-color:black"/>
  </radialGradient>
 </defs>
 <g id="Layer_x0020_1">
  <metadata id="CorelCorpID_0Corel-Layer"/>
  <rect class="fil0" width="295.91" height="35.56"/>
  <polygon class="fil1" points="295.91,35.56 -0,35.56 -0,0 295.91,0 "/>
  <g style="clip-path:url(#id0)">
   <g id="_308561808">
    <g>
     <path id="_3085620001" class="fil2" d="M311.293 -198.531l0 242.189 -388.769 0c27.1986,-12.3824 45.9235,-31.1245 68.2183,-45.4842 121.39,-78.185 4.0844,-170.587 163.212,-196.705l157.338 0z"/>
     <g>
      <path id="_308561952" class="fil3" d="M311.293 -15.3067l0 -183.224 -247.873 0c-0.154,2.5205 -0.2495,5.0515 -0.2495,7.5985 0,96.09 110.729,174.146 248.122,175.626z"/>
     </g>
    </g>
    <g>
     <g>
      <path id="_278946096" class="fil4" d="M10.3781 33.6141c0,0 0,0 0,0 -0.2945,-1.5149 0.5392,-2.9856 1.0824,-4.4302 0.5433,-1.4445 0.6771,-3.3581 -0.5765,-4.2582 -0.6319,-0.4537 -1.5806,-0.6278 -1.8161,-1.3692 -0.3439,-1.0824 1.2388,-1.9457 1.1812,-3.0799 -0.04,-0.7866 -0.8332,-1.2902 -1.2365,-1.9666 -0.5221,-0.8755 -0.3528,-2.0034 0.028,-2.9491 0.3808,-0.9455 0.9537,-1.8144 1.2308,-2.7954 0.2771,-0.981 0.1837,-2.169 -0.5891,-2.8339 1.6508,0.9186 3.323,1.853 4.6738,3.1737 1.3508,1.3207 2.3643,3.0975 2.3596,4.9866 -0.0032,1.2831 -0.4277,2.726 0.3532,3.7442 0.485,0.6323 1.2995,0.8889 2.0345,1.197 0.735,0.3081 1.5086,0.7945 1.6681,1.5753 0.1735,0.8495 -0.4531,1.6559 -0.527,2.5198 -0.097,1.1333 0.7445,2.1016 1.1775,3.1533 0.7201,1.7489 0.2528,3.8546 -0.9379,5.3241 -0.0653,0.0805 -0.1338,0.1611 -0.205,0.2412l-8.4755 0c-0.7096,-0.6056 -1.252,-1.3402 -1.4255,-2.2327z"/>
     </g>
     <g>
      <path id="_278945544" class="fil5" d="M15.465 30.6683c0.4378,-1.7925 1.1096,-3.5193 1.9989,-5.136 0.0303,-0.0549 -0.0536,-0.1047 -0.0839,-0.0496 -0.8603,1.5639 -1.5183,3.2313 -1.9586,4.9606 -0.0341,-0.3082 -0.0657,-0.616 -0.0952,-0.9232 -0.337,-3.5178 -0.4325,-7.0844 -1.354,-10.5166 -0.016,-0.0593 -0.0329,-0.1183 -0.0493,-0.1775 0.0006,-0.0023 0.0014,-0.0046 0.0018,-0.0071 0.1238,-0.8365 0.2475,-1.673 0.3713,-2.5095 0.0092,-0.0619 -0.0884,-0.063 -0.0975,-0.0017 -0.1131,0.7643 -0.2262,1.5286 -0.3393,2.2929 -0.0001,-0.0004 -0.0001,-0.0007 -0.0002,-0.001 0.0019,-0.0142 -0.0014,-0.0293 -0.0123,-0.0415 -0.4994,-1.7077 -1.2211,-3.3494 -2.2558,-4.8039 -0.036,-0.0506 -0.1211,-0.0028 -0.0846,0.0484 1.0117,1.4221 1.7088,3.0007 2.2035,4.6502 -0.5836,-0.4437 -1.1672,-0.8874 -1.7508,-1.3312 -0.0499,-0.0379 -0.0991,0.0463 -0.0496,0.0839 0.6158,0.4682 1.2316,0.9364 1.8473,1.4046 0.4913,1.6857 0.7756,3.4423 0.97,5.1797 0.1686,1.5061 0.2735,3.0211 0.3994,4.5332 -0.8304,-1.989 -1.9577,-3.843 -3.3416,-5.4961 -0.0403,-0.0481 -0.1095,0.0206 -0.0693,0.0686 1.4198,1.696 2.5675,3.6059 3.4011,5.6547 0.0067,0.0165 0.0184,0.0236 0.0311,0.025 0.1675,1.9698 0.379,3.9337 0.8231,5.8659 0.1086,0.4724 0.2317,0.9417 0.3712,1.4057l0.1048 0c-0.5036,-1.6713 -0.7957,-3.4147 -0.9967,-5.1534 0.007,-0.0056 0.0124,-0.0138 0.0152,-0.0251z"/>
     </g>
    </g>
    <g>
     <g>
      <path id="_404730184" class="fil6" d="M8.8905 29.1264c1.0168,-0.6419 2.0747,-1.4917 2.2226,-2.6849 0.3704,2.9548 -0.1482,6.0154 -1.4711,8.6834 -0.162,0.3267 -0.3421,0.6514 -0.5401,0.9662l-5.5138 0c0.4298,-1.3959 1.1507,-2.6969 2.0997,-3.8088 0.4688,-0.5494 0.7496,-1.2074 1.2456,-1.7285 0.5584,-0.5868 1.2781,-0.9988 1.9571,-1.4274z"/>
     </g>
     <g>
      <g>
       <path id="_404730088" class="fil5" d="M10.4047 28.5964c-0.5136,1.9407 -1.7781,3.657 -2.855,5.3233 -0.4712,0.7292 -0.9506,1.4529 -1.4378,2.1714l0.1403 0c0.5282,-0.7801 1.0473,-1.5663 1.5568,-2.3589 1.0319,-1.6053 2.2137,-3.2371 2.7081,-5.1048 0.0192,-0.0726 -0.0932,-0.1035 -0.1124,-0.031z"/>
      </g>
     </g>
    </g>
    <g>
     <g>
      <path id="_404729944" class="fil7" d="M0.5827 36.0911c-0.0151,-0.181 -0.0465,-0.3623 -0.0837,-0.5364 -0.2433,-1.1412 -0.6797,-2.2353 -1.2776,-3.2341l0 3.7705 1.3613 0z"/>
     </g>
    </g>
    <g>
     <g>
      <path id="_404729824" class="fil8" d="M0.8447 30.7842c0.4463,-0.8803 1.0815,-1.6972 1.2399,-2.6714 0.1437,-0.8836 -0.1253,-1.8048 0.0779,-2.6767 0.2249,-0.965 0.9798,-1.6982 1.6212,-2.4535 0.6414,-0.7553 1.225,-1.7151 1.0045,-2.6811 1.6669,2.2378 2.5708,5.0093 2.6831,7.7975 0.1107,2.7506 -0.5327,5.511 -1.726,7.9921l-5.4405 0c-0.0411,-0.2328 -0.077,-0.4553 -0.114,-0.6554 -0.2899,-1.5666 -0.0677,-3.2283 0.6539,-4.6515z"/>
     </g>
     <g>
      <g>
       <path id="_404729728" class="fil5" d="M2.4281 36.0911c0.3285,-4.522 2.6719,-8.809 2.6197,-13.4117 -0.0009,-0.0749 -0.1173,-0.0751 -0.1165,0 0.0523,4.6043 -2.2815,8.8884 -2.6148,13.4117l0.1116 0z"/>
      </g>
     </g>
    </g>
    <g>
     <path id="_404729584" class="fil9" d="M-0.7786 20.2521c0.0206,-0.2675 0.0225,-0.5362 0.0001,-0.8065 1.1195,2.6648 2.2625,5.5045 1.8108,8.3594 -0.1287,0.8138 -0.3861,1.6081 -0.4383,2.4302 -0.0887,1.399 0.4189,2.7561 0.8033,4.1042 0.1619,0.5678 0.3012,1.1602 0.3664,1.7517l-2.5423 0 0 -15.839z"/>
    </g>
    <g>
     <g>
      <path id="_404729176" class="fil10" d="M282.78 10.6013c0.9018,-1.2413 2.0781,-2.3386 2.5613,-3.7949 0.4382,-1.3209 0.2523,-2.8011 0.779,-4.0893 0.5829,-1.4258 1.9222,-2.3652 3.0928,-3.3665 1.1705,-1.0013 2.3029,-2.3307 2.2023,-3.8678 2.0073,3.8455 2.7119,8.3223 2.1973,12.6295 -0.5146,4.3073 -2.221,8.4393 -4.7187,11.9859 -0.7625,1.0828 -1.6246,2.1373 -2.7661,2.8088 -1.1415,0.6715 -2.6172,0.9011 -3.7951,0.2958 0,0 0,0 0,0 -1.8467,-0.9492 -1.6598,-3.8309 -1.7024,-5.6229 -0.0589,-2.476 0.6915,-4.9719 2.1496,-6.9786z"/>
     </g>
     <g>
      <path id="_404729080" class="fil11" d="M257.035 28.3888c0,0 0,0 0,0 -0.426,-2.1916 0.78,-4.3193 1.566,-6.4091 0.7859,-2.0899 0.9795,-4.8582 -0.834,-6.1605 -0.9142,-0.6564 -2.2867,-0.9082 -2.6275,-1.9808 -0.4975,-1.5659 1.7922,-2.8148 1.7089,-4.4557 -0.0578,-1.138 -1.2054,-1.8664 -1.7889,-2.845 -0.7553,-1.2667 -0.5104,-2.8985 0.0405,-4.2665 0.5509,-1.368 1.3798,-2.625 1.7807,-4.0442 0.4008,-1.4192 0.2657,-3.138 -0.8523,-4.0997 2.3881,1.3288 4.8075,2.6806 6.7616,4.5913 1.9542,1.9106 3.4204,4.4811 3.4137,7.2141 -0.0046,1.8563 -0.6188,3.9438 0.511,5.4167 0.7017,0.9149 1.8799,1.286 2.9432,1.7318 1.0633,0.4458 2.1825,1.1494 2.4133,2.279 0.2511,1.229 -0.6556,2.3956 -0.7624,3.6454 -0.1403,1.6395 1.077,3.0404 1.7035,4.5619 1.0417,2.5302 0.3657,5.5764 -1.3569,7.7023 -1.6801,2.0735 -4.7599,4.1328 -7.47,3.1048 -2.7303,-1.0357 -6.5366,-2.8279 -7.1504,-5.9858z"/>
     </g>
     <g>
      <path id="_404728984" class="fil12" d="M264.394 24.127c0.6333,-2.5931 1.6052,-5.0913 2.8918,-7.4302 0.0437,-0.0794 -0.0775,-0.1515 -0.1214,-0.0718 -1.2446,2.2625 -2.1966,4.6747 -2.8335,7.1765 -0.0493,-0.4458 -0.0951,-0.8912 -0.1377,-1.3355 -0.4875,-5.0892 -0.6257,-10.2491 -1.9589,-15.2144 -0.023,-0.0858 -0.0476,-0.1712 -0.0713,-0.2568 0.0009,-0.0034 0.002,-0.0066 0.0026,-0.0103 0.179,-1.2102 0.3581,-2.4203 0.5372,-3.6305 0.0132,-0.0896 -0.1279,-0.0911 -0.141,-0.0025 -0.1636,1.1057 -0.3273,2.2114 -0.4909,3.3171 -0.0001,-0.0004 -0.0003,-0.0009 -0.0004,-0.0014 0.0028,-0.0205 -0.0019,-0.0424 -0.0178,-0.0599 -0.7224,-2.4707 -1.7664,-4.8457 -3.2635,-6.95 -0.052,-0.0731 -0.1751,-0.004 -0.1223,0.0701 1.4635,2.0573 2.472,4.3411 3.1879,6.7275 -0.8444,-0.642 -1.6887,-1.2839 -2.533,-1.9259 -0.0722,-0.0549 -0.1433,0.067 -0.0718,0.1214 0.8909,0.6773 1.7818,1.3547 2.6726,2.0321 0.7107,2.4386 1.122,4.9799 1.4033,7.4933 0.2439,2.179 0.3956,4.3707 0.5778,6.5584 -1.2014,-2.8776 -2.8322,-5.5597 -4.8344,-7.9513 -0.0582,-0.0696 -0.1583,0.0298 -0.1003,0.0992 2.0542,2.4537 3.7145,5.2167 4.9205,8.1807 0.0096,0.0238 0.0266,0.0341 0.0449,0.0362 0.2424,2.8497 0.5485,5.6909 1.1909,8.4862 0.4245,1.8473 1.0023,3.6619 1.7899,5.3817l0.1559 0c-1.5569,-3.3797 -2.271,-7.0987 -2.6991,-10.8035 0.0101,-0.0081 0.018,-0.02 0.022,-0.0364z"/>
     </g>
     <g>
      <g>
       <path id="_404728888" class="fil4" d="M227.63 32.7342c0,0 0,0 0,0 -0.2945,-1.5149 0.5392,-2.9856 1.0824,-4.4302 0.5433,-1.4445 0.6771,-3.3581 -0.5765,-4.2582 -0.6319,-0.4537 -1.5806,-0.6278 -1.8161,-1.3692 -0.3439,-1.0824 1.2388,-1.9457 1.1812,-3.0799 -0.04,-0.7866 -0.8332,-1.2902 -1.2365,-1.9666 -0.5221,-0.8755 -0.3528,-2.0034 0.028,-2.9491 0.3808,-0.9455 0.9537,-1.8144 1.2308,-2.7954 0.2771,-0.981 0.1837,-2.169 -0.5891,-2.8339 1.6508,0.9186 3.323,1.853 4.6738,3.1737 1.3508,1.3207 2.3643,3.0975 2.3596,4.9866 -0.0032,1.2831 -0.4277,2.726 0.3532,3.7442 0.485,0.6323 1.2995,0.8889 2.0345,1.197 0.735,0.3081 1.5086,0.7945 1.6681,1.5753 0.1735,0.8495 -0.4531,1.6559 -0.527,2.5198 -0.097,1.1333 0.7445,2.1016 1.1775,3.1533 0.7201,1.7489 0.2528,3.8546 -0.9379,5.3241 -0.0653,0.0805 -0.1338,0.1611 -0.205,0.2412l-8.4755 0c-0.7096,-0.6056 -1.252,-1.3402 -1.4255,-2.2327z"/>
      </g>
      <g>
       <path id="_404728792" class="fil5" d="M232.717 29.7884c0.4378,-1.7925 1.1096,-3.5193 1.9989,-5.136 0.0303,-0.0549 -0.0536,-0.1047 -0.0839,-0.0496 -0.8603,1.5639 -1.5183,3.2313 -1.9586,4.9606 -0.0341,-0.3082 -0.0657,-0.616 -0.0952,-0.9232 -0.337,-3.5178 -0.4325,-7.0844 -1.354,-10.5166 -0.016,-0.0593 -0.0329,-0.1183 -0.0493,-0.1775 0.0006,-0.0023 0.0014,-0.0046 0.0018,-0.0071 0.1238,-0.8365 0.2475,-1.673 0.3713,-2.5095 0.0092,-0.0619 -0.0884,-0.063 -0.0975,-0.0017 -0.1131,0.7643 -0.2262,1.5286 -0.3393,2.2929 -0.0001,-0.0004 -0.0001,-0.0007 -0.0002,-0.001 0.0019,-0.0142 -0.0014,-0.0293 -0.0123,-0.0415 -0.4994,-1.7077 -1.2211,-3.3494 -2.2558,-4.8039 -0.036,-0.0506 -0.1211,-0.0028 -0.0846,0.0484 1.0117,1.4221 1.7088,3.0007 2.2035,4.6502 -0.5836,-0.4437 -1.1672,-0.8874 -1.7508,-1.3312 -0.0499,-0.0379 -0.0991,0.0463 -0.0496,0.0839 0.6158,0.4682 1.2316,0.9364 1.8473,1.4046 0.4913,1.6857 0.7756,3.4423 0.97,5.1797 0.1686,1.5061 0.2735,3.0211 0.3994,4.5332 -0.8304,-1.989 -1.9577,-3.843 -3.3416,-5.4961 -0.0403,-0.0481 -0.1095,0.0206 -0.0693,0.0686 1.4198,1.696 2.5675,3.6059 3.4011,5.6547 0.0067,0.0165 0.0184,0.0236 0.0311,0.025 0.1675,1.9698 0.379,3.9337 0.8231,5.8659 0.1086,0.4724 0.2317,0.9417 0.3712,1.4057l0.1048 0c-0.5036,-1.6713 -0.7957,-3.4147 -0.9967,-5.1534 0.007,-0.0056 0.0124,-0.0138 0.0152,-0.0251z"/>
      </g>
     </g>
     <g>
      <g>
       <path id="_404728672" class="fil13" d="M236.365 29.3527c-0.0085,-0.009 -0.0172,-0.0178 -0.0257,-0.0268 -0.0766,0.0616 -0.1589,0.1168 -0.241,0.1659 -1.3298,0.7949 -2.9492,0.8867 -4.4968,0.9577 1.368,-0.2989 2.6114,-1.1128 3.4568,-2.2268 -1.0754,-0.7687 -2.3035,-1.3431 -3.5186,-1.8826 -0.5632,-0.2501 -1.1283,-0.496 -1.6951,-0.7378 -0.2267,0.2366 -0.4998,0.4334 -0.7933,0.5749 -0.7237,0.349 -1.5512,0.414 -2.3545,0.3966 0.5701,-0.47 1.1505,-0.9516 1.5411,-1.5788 0.0107,-0.0172 0.0211,-0.0346 0.0315,-0.052 -1.8773,-0.771 -3.7731,-1.4967 -5.6855,-2.1762 0.0022,0.0426 0.0036,0.085 0.0045,0.1274 0.0298,1.4007 -0.6013,2.6911 -1.2069,3.9908 0.9736,0.2559 1.9743,0.4087 2.98,0.4526 -0.8794,0.5174 -1.9302,0.6324 -2.9452,0.736 -0.1884,0.0193 -0.3825,0.037 -0.5738,0.0361 -0.0438,0.1105 -0.0861,0.2213 -0.1262,0.3326 -0.3112,0.8643 -0.485,1.7712 -0.5306,2.6858 1.6288,-0.0213 3.2529,-0.5077 4.6127,-1.4065 -0.286,0.9769 -1.2173,1.5978 -2.0822,2.1345 -0.6043,0.375 -1.2086,0.75 -1.8129,1.125 -0.1875,0.1163 -0.3831,0.2348 -0.5892,0.3093 0.0959,0.5696 0.2403,1.1314 0.431,1.6765l3.5467 0c0.1822,-0.1606 0.3624,-0.3223 0.5411,-0.4833 -0.0308,0.1619 -0.0656,0.3231 -0.1045,0.4833l12.8936 0c0.0572,-0.1174 0.1085,-0.2378 0.1533,-0.3606 0.0098,-0.0266 0.0182,-0.0535 0.0273,-0.0803 -0.4241,0.0362 -0.8506,-0.0589 -1.257,-0.1884 -0.8148,-0.2595 -1.5848,-0.6588 -2.2664,-1.1753 1.247,0.2102 2.5551,0.0204 3.6988,-0.5168 -0.152,-1.2092 -0.7671,-2.3928 -1.613,-3.2928z"/>
      </g>
      <path id="_404728576" class="fil14" d="M237.622 34.9669c0.0572,-0.1174 0.1085,-0.2378 0.1533,-0.3606 0.0098,-0.0266 0.0182,-0.0535 0.0273,-0.0803 -0.4241,0.0362 -0.8506,-0.0589 -1.257,-0.1884 -0.8148,-0.2595 -1.5848,-0.6588 -2.2664,-1.1753 1.247,0.2102 2.5551,0.0204 3.6988,-0.5168 -0.152,-1.2092 -0.7671,-2.3928 -1.613,-3.2928 -0.0085,-0.009 -0.0172,-0.0178 -0.0257,-0.0268 -0.0766,0.0616 -0.1589,0.1168 -0.241,0.1659 -1.3298,0.7949 -2.9492,0.8867 -4.4968,0.9577 1.368,-0.2989 2.6114,-1.1128 3.4568,-2.2268 -1.0754,-0.7687 -2.3035,-1.3431 -3.5186,-1.8826 -0.5632,-0.2501 -1.1283,-0.496 -1.6951,-0.7378 -0.2267,0.2366 -0.4998,0.4334 -0.7933,0.5749 -0.7237,0.349 -1.5512,0.414 -2.3545,0.3966 0.5701,-0.47 1.1505,-0.9516 1.5411,-1.5788 0.0107,-0.0172 0.0211,-0.0346 0.0315,-0.052 -1.8773,-0.771 -3.7731,-1.4967 -5.6855,-2.1762 0.0022,0.0426 0.0036,0.085 0.0045,0.1274 0.2571,0.5754 2.2273,5.0452 5.648,8.077 1.6619,1.473 2.7272,2.9087 3.3834,3.9957l6.0022 0z"/>
     </g>
     <g>
      <g>
       <path id="_404728480" class="fil15" d="M289.388 19.8904c-1.0301,-0.9153 -2.1617,-1.7453 -2.9695,-2.8617 -0.8079,-1.1164 -1.2462,-2.6253 -0.6931,-3.8874 0.5531,-1.2622 2.351,-1.9439 3.4023,-1.053 0.4244,0.3597 0.8656,0.9626 1.3791,0.7484 0.4849,-0.2021 0.4124,-0.9266 0.1418,-1.377 -0.4424,-0.7361 -1.1557,-1.2586 -1.8055,-1.82 -0.6499,-0.5614 -1.2796,-1.2303 -1.4472,-2.0724 -0.1677,-0.8422 0.3249,-1.8623 1.1767,-1.9708 0.3179,-0.0405 0.6538,0.0444 0.9542,-0.0672 0.5051,-0.1876 0.6687,-0.8488 0.545,-1.3732 -0.1237,-0.5244 -0.447,-0.9781 -0.6366,-1.4824 -0.6669,-1.7734 0.7678,-3.9896 2.6588,-4.107 1.8911,-0.1175 3.589,1.9042 3.1466,3.7465 -0.1372,0.5712 -0.4396,1.1044 -0.4807,1.6903 -0.0411,0.5859 0.3317,1.2757 0.9189,1.2672 0.0191,-0.0003 0.0379,-0.0012 0.0565,-0.0028l0 22.7299c-1.0296,0.1142 -1.6205,-2.1359 -2.2482,-3.1733 -1.1111,-1.8362 -2.4945,-3.5083 -4.0991,-4.9341z"/>
      </g>
      <path id="_404728384" class="fil16" d="M295.736 26.8145l-0.0102 0.1001c-0.3056,-4.7686 -0.8793,-9.5192 -1.7189,-14.2232 0.0011,-0.0026 0.0024,-0.0051 0.0033,-0.008 0.4373,-1.4838 1.0146,-2.9195 1.7258,-4.2915l0 -0.2922c-0.7301,1.3729 -1.3265,2.8114 -1.782,4.2985 -0.185,-1.0223 -0.381,-2.0427 -0.5912,-3.0602 -0.3893,-1.8846 -0.8225,-3.7599 -1.2967,-5.6248 -0.0216,-0.0848 -0.1539,-0.0526 -0.1323,0.0326 0.4954,1.9479 0.9434,3.9077 1.3459,5.8766 -0.7265,-0.6904 -1.453,-1.3809 -2.1796,-2.0713 -0.0633,-0.0602 -0.1625,0.0331 -0.0988,0.0937 0.7695,0.7312 1.539,1.4625 2.3085,2.1938 0.0055,0.0052 0.0113,0.0088 0.0172,0.0119 0.7056,3.4836 1.2644,6.9967 1.6748,10.5274 -1.5922,-2.0952 -3.3791,-4.0354 -5.3377,-5.7933 -0.0649,-0.0583 -0.1643,0.035 -0.0989,0.0936 2.0115,1.8053 3.8423,3.8025 5.4666,5.9628 0.121,1.0599 0.2301,2.1211 0.3241,3.1839 0.1678,1.8975 0.292,3.7986 0.3749,5.7017 0.0004,0.0091 0.0022,0.0173 0.0052,0.0246l0 -2.7367z"/>
     </g>
     <g>
      <path id="_404728288" class="fil17" d="M255.179 21.7178c-3.5139,-2.5931 -4.865,-5.2037 -7.3898,-7.6346 4.284,1.3749 7.0485,6.4263 7.3905,7.5036 0.0076,-1.7322 -0.1766,-3.4644 -0.5579,-5.1539 -2.0601,-1.7548 -4.2081,-2.7552 -5.8881,-5.2652 2.6791,0.658 5.1523,3.7988 5.8261,5.0046 -0.3569,-1.4995 -0.8678,-2.9635 -1.5272,-4.3632 -2.0184,-1.0049 -3.8183,-2.3206 -5.3241,-3.8879 1.9241,0.5386 3.6813,1.6518 4.9746,3.1771 -0.56,-1.0871 -1.2104,-2.1312 -1.9461,-3.119 -0.0749,0.0215 -0.1497,0.0431 -0.2245,0.0648 -1.727,-0.4201 -3.2838,-1.3327 -4.4308,-2.5838 1.473,0.2546 2.8833,0.8619 4.0663,1.7625 -0.4635,-0.5701 -0.9577,-1.1181 -1.4777,-1.6437 -0.2738,-0.0147 -1.1598,-0.1795 -1.1598,-0.1769 -1.4648,-0.385 -2.7572,-1.0336 -4.0338,-1.7675 1.2015,0.0141 4.2128,1.2969 5.0371,1.7879 -0.7127,-0.7064 -1.4748,-1.3694 -2.2818,-1.9832 -0.0298,0.003 -0.0596,0.0061 -0.0894,0.0092 -1.099,-0.0963 -2.128,-0.5833 -3.0067,-1.1952 -0.8767,-0.6123 -1.6273,-1.3543 -2.4144,-2.0684 2.6312,-0.2928 4.1105,1.9088 5.6866,3.2367 -0.0046,0.0005 -0.0091,0.0009 -0.0137,0.0014 0.7303,0.5469 1.4259,1.1334 2.0819,1.7566 -0.502,-1.5059 -1.2096,-2.9653 -1.9782,-4.4132 1.286,1.0984 2.0997,2.6256 2.2656,4.1905 0.0002,0.0001 -0.0495,0.2885 -0.1268,0.3776 0.8332,0.807 1.6025,1.6719 2.2984,2.5881 0.107,0.1408 0.2112,0.2838 0.3147,0.4269 -0.1637,-0.6961 -1.3163,-4.1105 -0.4006,-6.761 0.8417,2.1283 0.9401,4.7254 0.45,6.8292 0.7867,1.0961 1.4733,2.2581 2.0488,3.4703 0.0138,-1.1762 -0.3687,-5.3745 0.6624,-8.0008 0.0492,1.342 0.6174,2.9923 0.6397,4.331 0.0317,1.2905 -0.5372,2.7796 -1.2109,3.8666 0.6316,1.3636 1.126,2.7876 1.4749,4.2469 0.4811,-3.1704 0.9965,-6.6794 2.9096,-9.8634 0.6778,3.2953 -2.1827,9.1039 -2.8631,10.066 0.3826,1.6657 0.5769,3.3749 0.5845,5.0875 0.2677,-0.9737 0.8664,-4.0666 1.5236,-5.5349 0.8372,-1.7501 1.5132,-3.3271 3.01,-4.764 -0.0546,4.6424 -1.9371,7.9206 -4.5328,10.5389 -0.0107,1.9326 -0.2588,3.867 -0.7311,5.7474 -0.0001,0.0005 -0.0005,0.0022 -0.0007,0.0027 -0.0315,0.1196 -0.1519,0.2015 -0.268,0.1837 -0.1163,-0.0178 -0.1846,-0.1278 -0.1535,-0.2463 0.5001,-1.9027 0.767,-3.8664 0.7862,-5.8316z"/>
     </g>
     <g>
      <path id="_404728192" class="fil18" d="M275.03 17.9726c3.2717,-2.4396 4.2932,-4.9233 6.5606,-7.22 -4.2504,1.2628 -6.383,6.0668 -6.5805,7.0945 -0.2618,-1.6594 -0.3242,-3.3165 -0.1756,-4.9301 1.8837,-1.6549 3.9693,-2.5861 5.3473,-4.9692 -2.6877,0.5964 -4.7976,3.5738 -5.3211,4.7204 0.1511,-1.432 0.4676,-2.8279 0.9477,-4.1604 1.9502,-0.9371 3.6278,-2.1747 4.963,-3.657 -1.9206,0.4916 -3.5836,1.5358 -4.704,2.9805 0.4225,-1.0342 0.9454,-2.0263 1.5652,-2.9631 0.081,0.0215 0.1619,0.0431 0.2428,0.0649 1.7332,-0.3807 3.2172,-1.2351 4.2259,-2.4191 -1.4935,0.2253 -2.8701,0.7892 -3.9674,1.6369 0.3982,-0.5402 0.8313,-1.0589 1.2947,-1.5558 0.2824,-0.0107 1.1789,-0.1573 1.1794,-0.1548 1.4658,-0.3503 2.7138,-0.9553 3.9329,-1.6422 -1.2466,-0.0016 -4.188,1.1891 -4.9726,1.649 0.6371,-0.6676 1.332,-1.2931 2.0807,-1.8709 0.0313,0.0033 0.0628,0.0066 0.0941,0.01 1.128,-0.0784 2.1261,-0.5319 2.9495,-1.107 0.8214,-0.5754 1.4926,-1.2767 2.2059,-1.9509 -2.7773,-0.3136 -3.9919,1.7767 -5.4351,3.0288 0.0048,0.0004 0.0095,0.0009 0.0143,0.0014 -0.6787,0.5147 -1.3156,1.0677 -1.9061,1.6565 0.3011,-1.4363 0.8225,-2.8253 1.4091,-4.2026 -1.1755,1.0359 -1.7973,2.4886 -1.7403,3.9855 -0.0003,0.0001 0.0937,0.277 0.187,0.3634 -0.7475,0.7625 -1.4202,1.5814 -2.0091,2.4502 -0.0906,0.1335 -0.1779,0.2691 -0.2645,0.4049 0.0681,-0.6648 0.7654,-3.921 -0.5746,-6.4715 -0.5628,2.0282 -0.2844,4.5147 0.5333,6.5362 -0.657,1.0401 -1.2001,2.1445 -1.6206,3.2984 -0.1867,-1.1269 -0.4045,-5.1437 -1.861,-7.6726 0.1456,1.285 -0.203,2.8587 -0.0301,4.1408 0.1563,1.2358 0.9657,2.6694 1.8252,3.7191 -0.4565,1.2983 -0.7615,2.6562 -0.9102,4.0497 -0.9648,-3.0431 -2.0147,-6.4111 -4.4695,-9.4853 -0.2214,3.1481 3.6026,8.7486 4.4508,9.6787 -0.1535,1.5908 -0.1049,3.2257 0.1383,4.8661 -0.4211,-0.9361 -1.4965,-3.9065 -2.3947,-5.3213 -1.1265,-1.6871 -2.0602,-3.2062 -3.8263,-4.6016 0.7372,4.4478 3.174,7.6119 6.2553,10.1529 0.2943,1.8514 0.8357,3.7075 1.6021,5.5148 0.0003,0.0005 0.0009,0.0021 0.0012,0.0026 0.0502,0.115 0.1873,0.1949 0.3054,0.1794 0.1182,-0.0156 0.1731,-0.1201 0.1235,-0.234 -0.7988,-1.8291 -1.3639,-3.7135 -1.6719,-5.5962z"/>
     </g>
     <g>
      <path id="_404728096" class="fil19" d="M292.811 34.0735c-1.3651,-0.8351 -1.5965,-1.0793 -2.6805,-2.2567 -1.0839,-1.1774 -1.8473,-2.7456 -1.705,-4.3397 0.1006,-1.1271 0.6416,-2.2084 0.5547,-3.3367 -0.0758,-0.984 -0.6197,-1.8657 -0.8716,-2.8199 -0.8072,-3.0572 1.4565,-6.2258 0.9342,-9.3443 1.5706,3.0097 3.1858,6.2218 2.936,9.6074 -0.0712,0.965 -0.2949,1.9199 -0.2757,2.8872 0.0328,1.6462 0.7595,3.185 1.3411,4.7253 0.5816,1.5404 1.028,3.2546 0.4968,4.8131l-0.73 0.0643z"/>
     </g>
     <g>
      <path id="_404728000" class="fil20" d="M244.555 29.1595c-1.466,-1.0474 -1.7062,-1.3402 -2.8288,-2.7493 -1.1226,-1.4092 -1.8538,-3.2313 -1.566,-5.0099 0.2034,-1.2576 0.8978,-2.4284 0.8908,-3.7023 -0.0061,-1.111 -0.5461,-2.1448 -0.7523,-3.2365 -0.6609,-3.4977 2.1356,-6.874 1.7994,-10.4177 1.522,3.5058 3.0778,7.2424 2.5253,11.024 -0.1574,1.0779 -0.4853,2.1321 -0.5414,3.2199 -0.0953,1.8511 0.5971,3.6374 1.1265,5.4137 0.5293,1.7764 0.8929,3.7372 0.1712,5.4445l-0.8247 0.0136z"/>
     </g>
     <g>
      <path id="_404727904" class="fil21" d="M246.079 29.4367c-1.7757,-0.3051 -2.1193,-0.4641 -3.7434,-1.2442 -1.624,-0.7802 -3.0753,-2.1025 -3.5903,-3.8291 -0.3641,-1.2208 -0.2484,-2.577 -0.8091,-3.7209 -0.4891,-0.9977 -1.4251,-1.6934 -2.0859,-2.5866 -2.1172,-2.8615 -1.0689,-7.1183 -2.9137,-10.1625 2.8959,2.494 5.9228,5.1811 7.0712,8.8263 0.3273,1.0389 0.491,2.1308 0.9139,3.1346 0.7198,1.7081 2.1205,3.015 3.3703,4.3839 1.2497,1.3689 2.4303,2.9761 2.5237,4.8272l-0.7367 0.3713z"/>
     </g>
     <g>
      <g>
       <path id="_404727808" class="fil22" d="M291.374 24.8478c0.8275,-1.002 1.8794,-1.868 2.3641,-3.0738 0.4398,-1.0936 0.3602,-2.3547 0.8729,-3.4161 0.2659,-0.5504 0.6666,-1.0018 1.1245,-1.407l0 16.6219c-0.4337,0.5127 -0.9036,0.9992 -1.4379,1.3941l-4.5342 0c-0.8505,-1.1089 -0.6213,-3.0469 -0.5723,-4.3324 0.08,-2.0961 0.8452,-4.1667 2.1829,-5.7867z"/>
      </g>
      <g>
       <g>
        <path id="_404727712" class="fil5" d="M291.244 34.9669c0.5065,-4.0589 2.5646,-7.575 4.4922,-11.1476l0 -0.2484c-1.9631,3.6568 -4.0991,7.2414 -4.6168,11.396l0.1246 0z"/>
       </g>
      </g>
     </g>
     <g>
      <path id="_404727568" class="fil23" d="M287.765 31.1091c-0.0026,-0.0148 -0.0057,-0.0294 -0.0085,-0.0442 -0.1187,0.0122 -0.2393,0.0142 -0.3553,0.0101 -1.8813,-0.067 -3.594,-1.0425 -5.2197,-1.9916 1.5929,0.5981 3.3987,0.5886 4.9966,0.0104 -0.5897,-1.4941 -1.4633,-2.8909 -2.3467,-4.2434 -0.4094,-0.627 -0.8236,-1.2508 -1.2422,-1.8717 -0.3874,0.0916 -0.796,0.1121 -1.1888,0.0627 -0.9687,-0.1218 -1.8557,-0.6017 -2.6638,-1.1497 0.8919,-0.1031 1.802,-0.2113 2.6145,-0.5933 0.0223,-0.0105 0.0444,-0.0213 0.0665,-0.0323 -1.4062,-2.0258 -2.8611,-4.0177 -4.3634,-5.9733 -0.0259,0.0448 -0.0525,0.089 -0.0796,0.1329 -0.8942,1.4486 -2.3899,2.3484 -3.8657,3.2745 0.8242,0.9037 1.7442,1.7202 2.7411,2.4289 -1.2386,-0.0527 -2.3865,-0.6291 -3.4904,-1.1935 -0.2048,-0.1047 -0.4145,-0.2148 -0.609,-0.342 -0.1177,0.0838 -0.2341,0.169 -0.3484,0.256 -0.888,0.6763 -1.6642,1.4867 -2.3144,2.3896 1.6757,1.0536 3.6537,1.6296 5.6342,1.6104 -0.9368,0.8078 -2.2967,0.8263 -3.5334,0.8029 -0.864,-0.0164 -1.728,-0.0328 -2.592,-0.0492 -0.2681,-0.0051 -0.5459,-0.0134 -0.8053,-0.0735 -0.6207,1.4378 -0.9695,2.9944 -1.0063,4.5562 1.5866,0.1483 3.2376,-0.1008 4.8284,-0.3558 -1.0869,1.1385 -2.3978,2.0623 -3.8355,2.7029 -0.2412,0.1075 -0.498,0.2078 -0.757,0.246 0.0216,0.1028 0.0443,0.2054 0.069,0.3076 0.2525,1.0445 0.6727,2.0694 1.2507,2.9802l14.3988 0c-0.2416,-0.4319 -0.4484,-0.8832 -0.6171,-1.3483 0.6145,0.5626 1.3249,1.0171 2.0891,1.3483l2.2635 0c0.4394,-1.2097 0.522,-2.5846 0.2901,-3.8578z"/>
     </g>
     <g>
      <g>
       <path id="_404727472" class="fil24" d="M247.837 10.9512c-0.9498,2.1659 -1.6154,4.3852 -1.9967,6.6118 0.9473,0.2583 1.9046,0.4731 2.5333,0.4958 0,0 -1.3653,0.4791 -2.7165,0.7461 -0.2687,2.1777 -0.2643,4.3541 0.018,6.4862 1.4896,0.1297 3.0795,0.2335 3.9739,0.1864 1.2301,-0.0648 -1.3569,0.8789 -3.6876,1.515 0.1488,0.7271 0.3302,1.4477 0.5453,2.1597 0.4299,1.4223 0.9934,2.8095 1.6793,4.1507 1.7191,-0.2609 3.458,-0.5533 3.8195,-0.7175 0.466,-0.2115 -1.2943,1.0829 -3.0599,2.0986 0.0558,0.0946 0.1121,0.1889 0.1691,0.2829l5.7908 0c-2.6551,-7.9536 -5.1085,-16.1471 -7.0537,-24.0066 -0.005,-0.003 -0.0098,-0.006 -0.0148,-0.0091z"/>
      </g>
      <g>
       <path id="_404727376" class="fil25" d="M257.703 32.188c0.764,0.0487 2.2142,-0.1193 3.5639,-0.316 -0.0912,-2.0682 -0.4496,-4.1076 -1.0811,-6.0753 -0.096,-0.299 -0.1998,-0.5958 -0.3082,-0.8913 -1.4801,0.6643 -3.3722,1.3606 -2.7396,0.8887 0.4533,-0.3382 1.4541,-1.1921 2.3227,-1.9448 -0.9767,-2.3087 -2.3335,-4.4924 -4.0218,-6.4915 -1.3482,0.7821 -3.1312,1.5412 -2.5305,1.1644 0.4693,-0.2945 1.0841,-1.3247 1.5669,-2.2472 -1.8792,-2.0049 -4.1048,-3.7992 -6.6235,-5.3147 1.9452,7.8595 4.3986,16.053 7.0537,24.0066l6.2994 0c0.0453,-0.5414 0.0725,-1.0823 0.0818,-1.622 -2.1998,-0.3499 -4.7075,-1.2287 -3.5837,-1.1569z"/>
      </g>
      <path id="_404727280" class="fil26" d="M248.256 12.109c1.3641,5.6053 2.9344,11.1638 4.6817,16.6747 0.6546,2.0672 1.3334,4.1278 2.0312,6.1832l-0.2008 0c-0.6861,-2.0407 -1.3535,-4.0865 -1.9972,-6.1388 -1.7324,-5.5171 -3.2876,-11.0815 -4.6363,-16.692l0.1214 -0.0271z"/>
     </g>
     <g>
      <g>
       <path id="_404727184" class="fil27" d="M270.246 11.0105c-1.9886,1.1675 -3.7832,2.5398 -5.3573,4.0804 0.6005,0.7456 1.2337,1.4626 1.7174,1.84 0,0 -1.3523,-0.4022 -2.5722,-0.9639 -1.4573,1.5664 -2.6982,3.2879 -3.6943,5.1333 1.1024,0.9541 2.2988,1.9451 3.0321,2.4192 1.0086,0.6521 -1.5742,-0.0816 -3.7787,-0.9118 -0.2982,0.6594 -0.567,1.3322 -0.8041,2.0176 -0.4737,1.3691 -0.8217,2.7869 -1.0468,4.2384 1.5069,0.7768 3.0475,1.5401 3.4268,1.6171 0.4891,0.0993 -1.6414,0.1153 -3.6165,-0.092 -0.0701,0.7445 -0.1097,1.4961 -0.1166,2.2535 -0.0068,0.764 0.0123,1.541 0.0638,2.3246l4.302 0c2.5246,-8.1084 5.3737,-16.3248 8.4508,-23.9408 -0.0022,-0.0052 -0.0042,-0.0104 -0.0064,-0.0156z"/>
      </g>
      <g>
       <path id="_404727088" class="fil28" d="M265.896 33.4245c0.5,0.413 1.5031,0.9931 2.5308,1.5424l0.6241 0c1.0357,-1.6159 1.8642,-3.3483 2.4602,-5.1709 0.0951,-0.291 0.1828,-0.5848 0.2661,-0.8801 -1.5488,-0.3216 -3.4413,-0.8534 -2.6719,-0.8645 0.5515,-0.0079 1.8301,-0.1102 2.9464,-0.208 0.5487,-2.3819 0.7255,-4.8823 0.5351,-7.4265 -1.512,-0.1532 -3.3542,-0.573 -2.6644,-0.5272 0.539,0.0357 1.6137,-0.4265 2.5223,-0.879 -0.3378,-2.6579 -1.0697,-5.3476 -2.1926,-7.9846 -3.0771,7.616 -5.9262,15.8324 -8.4508,23.9408l4.9804 0c-0.9224,-1.1207 -1.4834,-2.0361 -0.8857,-1.5424z"/>
      </g>
      <path id="_404726992" class="fil29" d="M269.915 12.1644c-2.1275,5.2071 -4.0653,10.495 -5.8361,15.8466 -0.7646,2.3083 -1.4991,4.6278 -2.2107,6.9559l-0.197 0c0.7246,-2.3483 1.4722,-4.688 2.2506,-7.0162 1.7861,-5.3479 3.7392,-10.6319 5.8817,-15.8343l0.1115 0.048z"/>
     </g>
     <g>
      <g>
       <path id="_404726896" class="fil30" d="M237.43 34.9669c-1.0424,-0.6898 -1.8797,-1.7606 -1.9208,-2.9948 -0.0461,-1.3901 1.2938,-2.7939 2.639,-2.4406 0.5432,0.1427 1.2075,0.4993 1.5817,0.0807 0.3534,-0.3953 -0.0282,-1.0234 -0.4707,-1.3155 -0.7233,-0.4775 -1.6005,-0.6426 -2.4366,-0.8706 -0.8362,-0.2282 -1.7009,-0.5629 -2.2204,-1.2566 -0.5195,-0.6938 -0.5152,-1.8371 0.2131,-2.3069 0.2718,-0.1753 0.6145,-0.2443 0.8395,-0.4768 0.3781,-0.3908 0.2391,-1.064 -0.1019,-1.4876 -0.3411,-0.4236 -0.833,-0.6958 -1.2253,-1.0724 -1.3797,-1.3242 -1.0387,-3.9669 0.6319,-4.8975 1.6706,-0.9306 4.0971,0.1705 4.4967,2.0406 0.1239,0.5797 0.0808,1.197 0.2986,1.7483 0.2178,0.5513 0.8577,1.0171 1.3886,0.7536 0.5382,-0.2671 0.5557,-1.0209 0.8741,-1.5304 0.5291,-0.8468 1.8809,-0.8208 2.6243,-0.1541 0.7434,0.6666 0.9855,1.7319 1.0143,2.73 0.0288,0.9981 -0.114,2.0043 0.0355,2.9916 0.0524,0.3461 0.1967,0.7462 0.5369,0.8289 0.5449,0.1324 0.824,-0.6008 1.1049,-1.0861 0.6719,-1.1604 2.4543,-1.2502 3.5355,-0.4572 1.0813,0.7931 1.5701,2.1686 1.7703,3.4945 0,0 0,0 0,0 0.3232,2.1393 0.0461,4.3019 -0.2727,6.4235 -0.0622,0.4134 -0.1112,0.8328 -0.1531,1.2554l-14.7834 0z"/>
      </g>
      <path id="_404726800" class="fil31" d="M248.236 27.2913c-0.0047,-0.0885 -0.1406,-0.0671 -0.136,0.0205 0.1377,2.5899 0.4655,5.1461 1.0167,7.6551l0.1402 0c-0.5542,-2.5155 -0.8828,-5.0784 -1.0209,-7.6756zm-0.6898 7.6756c-1.4872,-2.3876 -3.0528,-4.7264 -4.6938,-7.0113 -0.0001,-0.0028 -0.0001,-0.0057 -0.0005,-0.0087 -0.2804,-1.7424 -0.3714,-3.507 -0.2706,-5.269 0.0051,-0.0882 -0.1316,-0.1036 -0.1366,-0.0151 -0.0966,1.6875 -0.0189,3.3781 0.2318,5.049 -0.6136,-0.8503 -1.2366,-1.694 -1.8712,-2.5289 -1.1753,-1.5462 -2.3864,-3.0649 -3.6306,-4.5563 -0.0565,-0.0679 -0.163,0.0191 -0.1061,0.0873 1.2994,1.5577 2.5609,3.1469 3.785,4.7642 -0.9622,-0.3121 -1.9244,-0.6243 -2.8866,-0.9365 -0.084,-0.0272 -0.1336,0.101 -0.0493,0.1284 1.0192,0.3306 2.0383,0.6612 3.0574,0.9919 0.0073,0.0023 0.0142,0.0031 0.0208,0.0033 2.1598,2.8645 4.1988,5.8196 6.1104,8.8555 -2.3623,-1.2141 -4.8343,-2.2023 -7.3833,-2.9498 -0.0845,-0.0248 -0.1343,0.1034 -0.0493,0.1283 2.6178,0.7676 5.1546,1.7885 7.5745,3.048l0.1374 0.2197 0.1606 0z"/>
     </g>
     <path id="_404726680" class="fil32" d="M269.242 0.7171c0,0.4388 -0.3557,0.7944 -0.7944,0.7944 -0.4387,0 -0.7944,-0.3556 -0.7944,-0.7944 0,-0.4387 0.3557,-0.7944 0.7944,-0.7944 0.4387,0 0.7944,0.3557 0.7944,0.7944z"/>
     <path id="_404726608" class="fil33" d="M275.784 -2.7875c0,0.4129 -0.3348,0.7477 -0.7477,0.7477 -0.4129,0 -0.7476,-0.3348 -0.7476,-0.7477 0,-0.4129 0.3347,-0.7476 0.7476,-0.7476 0.4129,0 0.7477,0.3347 0.7477,0.7476z"/>
     <path id="_404726536" class="fil33" d="M253.541 -0.7314c0,0.4645 -0.3765,0.841 -0.8411,0.841 -0.4645,0 -0.8411,-0.3765 -0.8411,-0.841 0,-0.4646 0.3766,-0.8411 0.8411,-0.8411 0.4646,0 0.8411,0.3765 0.8411,0.8411z"/>
     <path id="_404726464" class="fil33" d="M283.167 6.5581c0,0.2065 -0.1674,0.3738 -0.3738,0.3738 -0.2065,0 -0.3738,-0.1673 -0.3738,-0.3738 0,-0.2064 0.1673,-0.3738 0.3738,-0.3738 0.2064,0 0.3738,0.1674 0.3738,0.3738z"/>
     <path id="_404726392" class="fil33" d="M290.083 -5.8715c0,0.3613 -0.2929,0.6542 -0.6541,0.6542 -0.3613,0 -0.6542,-0.2929 -0.6542,-0.6542 0,-0.3613 0.2929,-0.6542 0.6542,-0.6542 0.3612,0 0.6541,0.2929 0.6541,0.6542z"/>
     <path id="_404726320" class="fil32" d="M295.736 -2.069c-0.0744,0.019 -0.1523,0.0292 -0.2327,0.0292 -0.5161,0 -0.9346,-0.4185 -0.9346,-0.9346 0,-0.5161 0.4185,-0.9346 0.9346,-0.9346 0.0804,0 0.1583,0.0102 0.2327,0.0293l0 1.8107z"/>
     <path id="_404726248" class="fil32" d="M267.092 -4.9837c0,0.1807 -0.1465,0.3271 -0.3271,0.3271 -0.1807,0 -0.3271,-0.1464 -0.3271,-0.3271 0,-0.1806 0.1464,-0.3271 0.3271,-0.3271 0.1806,0 0.3271,0.1465 0.3271,0.3271z"/>
     <path id="_404726176" class="fil34" d="M237.467 4.7357c0,0.3355 -0.2719,0.6075 -0.6075,0.6075 -0.3354,0 -0.6074,-0.272 -0.6074,-0.6075 0,-0.3354 0.272,-0.6074 0.6074,-0.6074 0.3356,0 0.6075,0.272 0.6075,0.6074z"/>
     <path id="_404726104" class="fil33" d="M232.233 7.3525c0,0.2839 -0.2301,0.514 -0.514,0.514 -0.2839,0 -0.514,-0.2301 -0.514,-0.514 0,-0.2839 0.2301,-0.514 0.514,-0.514 0.2839,0 0.514,0.2301 0.514,0.514z"/>
     <path id="_404726032" class="fil34" d="M223.907 19.1436c0,0.4424 -0.3587,0.8011 -0.8012,0.8011 -0.4425,0 -0.8012,-0.3587 -0.8012,-0.8011 0,-0.4425 0.3587,-0.8013 0.8012,-0.8013 0.4425,0 0.8012,0.3588 0.8012,0.8013z"/>
     <path id="_404725960" class="fil33" d="M217.947 24.969c0,0.3163 -0.2565,0.5727 -0.5728,0.5727 -0.3164,0 -0.5728,-0.2564 -0.5728,-0.5727 0,-0.3164 0.2564,-0.5728 0.5728,-0.5728 0.3163,0 0.5728,0.2564 0.5728,0.5728z"/>
     <path id="_404725888" class="fil35" d="M218.121 31.6978c0,0.2581 -0.2092,0.4673 -0.4673,0.4673 -0.258,0 -0.4672,-0.2092 -0.4672,-0.4673 0,-0.2581 0.2092,-0.4673 0.4672,-0.4673 0.2581,0 0.4673,0.2092 0.4673,0.4673z"/>
     <path id="_404725816" class="fil32" d="M282.279 -5.9416c0,0.1935 -0.1569,0.3504 -0.3505,0.3504 -0.1935,0 -0.3505,-0.1569 -0.3505,-0.3504 0,-0.1936 0.157,-0.3505 0.3505,-0.3505 0.1936,0 0.3505,0.1569 0.3505,0.3505z"/>
     <g>
      <g>
       <path id="_308563896" class="fil36" d="M283.739 28.6313c-0.0058,-1.1402 0.2161,-2.3149 -0.1351,-3.3998 -0.3185,-0.984 -1.081,-1.7888 -1.3323,-2.7921 -0.278,-1.1105 0.1111,-2.2623 0.3717,-3.377 0.2608,-1.1147 0.3542,-2.4091 -0.3821,-3.2856 2.8939,1.4205 5.2852,3.7921 6.8717,6.5985 1.5865,2.8063 2.382,6.032 2.446,9.2551 0.0195,0.9841 -0.033,1.9949 -0.4213,2.8993 -0.0643,0.1497 -0.1396,0.2962 -0.2246,0.4372l-4.4764 0c-0.3509,-0.4175 -0.6624,-0.8561 -0.9354,-1.2099 -1.1244,-1.4571 -1.7728,-3.2823 -1.7822,-5.1257z"/>
      </g>
      <g>
       <g>
        <path id="_308563824" class="fil5" d="M289.012 34.9669c-2.9754,-5.1522 -2.4443,-11.6144 -5.2356,-16.8838 -0.0375,-0.0708 -0.145,-0.008 -0.1075,0.0628 2.7799,5.248 2.2636,11.6779 5.1998,16.821l0.1433 0z"/>
       </g>
      </g>
     </g>
    </g>
   </g>
  </g>
  <polygon class="fil37" points="295.91,35.56 -0,35.56 -0,0 295.91,0 "/>
  <g id="_404731888">
   <g>
    <path id="_404732032" class="fil30" d="M22.8645 35.2214c-1.0424,-0.6898 -1.8797,-1.7606 -1.9208,-2.9948 -0.0461,-1.3901 1.2938,-2.7939 2.639,-2.4406 0.5432,0.1427 1.2075,0.4993 1.5817,0.0807 0.3534,-0.3953 -0.0282,-1.0234 -0.4707,-1.3155 -0.7233,-0.4775 -1.6005,-0.6426 -2.4366,-0.8706 -0.8362,-0.2282 -1.7009,-0.5629 -2.2204,-1.2566 -0.5195,-0.6938 -0.5152,-1.8371 0.2131,-2.3069 0.2718,-0.1753 0.6145,-0.2443 0.8395,-0.4768 0.3781,-0.3908 0.2391,-1.064 -0.1019,-1.4876 -0.3411,-0.4236 -0.833,-0.6958 -1.2253,-1.0724 -1.3797,-1.3242 -1.0387,-3.9669 0.6319,-4.8975 1.6706,-0.9306 4.0971,0.1705 4.4967,2.0406 0.1239,0.5797 0.0808,1.197 0.2986,1.7483 0.2178,0.5513 0.8577,1.0171 1.3886,0.7536 0.5382,-0.2671 0.5557,-1.0209 0.8741,-1.5304 0.5291,-0.8468 1.8809,-0.8208 2.6243,-0.1541 0.7434,0.6666 0.9855,1.7319 1.0143,2.73 0.0288,0.9981 -0.114,2.0043 0.0355,2.9916 0.0524,0.3461 0.1967,0.7462 0.5369,0.8289 0.5449,0.1324 0.824,-0.6008 1.1049,-1.0861 0.6719,-1.1604 2.4543,-1.2502 3.5355,-0.4572 1.0813,0.7931 1.5701,2.1686 1.7703,3.4945 0,0 0,0 0,0 0.3232,2.1393 0.0461,4.3019 -0.2727,6.4235 -0.0622,0.4134 -0.1112,0.8328 -0.1531,1.2554l-14.7834 0z"/>
   </g>
   <path id="_404731936" class="fil31" d="M33.6708 27.5458c-0.0047,-0.0885 -0.1406,-0.0671 -0.136,0.0205 0.1377,2.5899 0.4655,5.1461 1.0167,7.6551l0.1402 0c-0.5542,-2.5155 -0.8828,-5.0784 -1.0209,-7.6756zm-0.6898 7.6756c-1.4872,-2.3876 -3.0528,-4.7264 -4.6938,-7.0113 -0.0001,-0.0028 -0.0001,-0.0057 -0.0005,-0.0087 -0.2804,-1.7424 -0.3714,-3.507 -0.2706,-5.269 0.0051,-0.0882 -0.1316,-0.1036 -0.1366,-0.0151 -0.0966,1.6875 -0.0189,3.3781 0.2318,5.049 -0.6136,-0.8503 -1.2366,-1.694 -1.8712,-2.5289 -1.1753,-1.5462 -2.3864,-3.0649 -3.6306,-4.5563 -0.0565,-0.0679 -0.163,0.0191 -0.1061,0.0873 1.2994,1.5577 2.5609,3.1469 3.785,4.7642 -0.9622,-0.3121 -1.9244,-0.6243 -2.8866,-0.9365 -0.084,-0.0272 -0.1336,0.101 -0.0493,0.1284 1.0192,0.3306 2.0383,0.6612 3.0574,0.9919 0.0073,0.0023 0.0142,0.0031 0.0208,0.0033 2.1598,2.8645 4.1988,5.8196 6.1104,8.8555 -2.3623,-1.2141 -4.8343,-2.2023 -7.3833,-2.9498 -0.0845,-0.0248 -0.1343,0.1034 -0.0493,0.1283 2.6178,0.7676 5.1546,1.7885 7.5745,3.048l0.1374 0.2197 0.1606 0z"/>
  </g>
  <g id="_404731336">
   <path id="_404731672" class="fil38" d="M30.8223 3.459l-21.8554 0 0 6.2443 21.8554 0c0.5388,0 0.9757,-0.4368 0.9757,-0.9757l0 -4.293c0,-0.5388 -0.4369,-0.9756 -0.9757,-0.9756z"/>
   <path id="_404731600" class="fil39" d="M8.9669 3.459l-5.0736 0c-0.5389,0 -0.9757,0.4368 -0.9757,0.9756l0 4.293c0,0.5389 0.4368,0.9757 0.9757,0.9757l5.0736 0 0 -6.2443z"/>
   <path id="_404731528" class="fil40" d="M7.6853 6.3669l-0.0338 -0.0595c0.0009,-0.4243 -0.1957,-0.5971 -0.4252,-0.7288 0.0695,-0.0183 0.1409,-0.0329 0.1609,-0.1207 0.1199,-0.0302 0.1445,-0.0859 0.1564,-0.1445 0.0311,-0.021 0.1354,-0.0795 0.1244,-0.1801 0.0585,-0.0403 0.0914,-0.0924 0.074,-0.1655 0.0632,-0.0686 0.0796,-0.1253 0.0531,-0.1775 0.0759,-0.0941 0.0421,-0.1426 0.0101,-0.191 0.0566,-0.1025 0.0064,-0.2122 -0.1518,-0.1939 -0.0631,-0.0924 -0.2003,-0.0714 -0.2213,-0.0714 -0.0239,-0.0292 -0.0549,-0.0548 -0.1509,-0.043 -0.0622,-0.0557 -0.1318,-0.0457 -0.204,-0.0191 -0.085,-0.0668 -0.1417,-0.0129 -0.2066,0.0073 -0.1033,-0.0329 -0.1271,0.0118 -0.1775,0.0311 -0.1124,-0.0238 -0.1472,0.0274 -0.2011,0.0813l-0.0631 -0.0008c-0.1701,0.0987 -0.2543,0.2999 -0.2844,0.4032 -0.0302,-0.1033 -0.1143,-0.3045 -0.2844,-0.4032l-0.0631 0.0008c-0.054,-0.0539 -0.0887,-0.1051 -0.2012,-0.0813 -0.0512,-0.0183 -0.074,-0.064 -0.1774,-0.0311 -0.042,-0.0128 -0.0814,-0.0402 -0.1271,-0.0393 -0.0237,0.0008 -0.0503,0.0091 -0.0796,0.032 -0.0722,-0.0275 -0.1417,-0.0366 -0.2039,0.0191 -0.096,-0.0118 -0.128,0.0129 -0.1509,0.043 -0.021,0 -0.1582,-0.021 -0.2212,0.0714 -0.1582,-0.0183 -0.2077,0.0914 -0.1509,0.1939 -0.0321,0.0493 -0.0659,0.0978 0.01,0.191 -0.0265,0.0522 -0.01,0.1089 0.0531,0.1775 -0.0165,0.0731 0.0164,0.1252 0.074,0.1655 -0.011,0.1006 0.0933,0.1591 0.1244,0.1801 0.0119,0.0586 0.0366,0.1134 0.1563,0.1445 0.0202,0.0869 0.0915,0.1024 0.161,0.1207 -0.2296,0.1317 -0.4261,0.3045 -0.4252,0.7288l-0.0339 0.0595c-0.2633,0.1573 -0.5002,0.6648 -0.1298,1.0763 0.0238,0.129 0.0649,0.2213 0.1006,0.3237 0.0539,0.4133 0.4069,0.6063 0.4993,0.6291 0.1362,0.1025 0.2816,0.1994 0.4774,0.2671 0.1856,0.1884 0.3867,0.2597 0.5879,0.2597l0.0092 0c0.202,0 0.4024,-0.0713 0.587,-0.2597 0.1967,-0.0677 0.3411,-0.1646 0.4774,-0.2671 0.0933,-0.0228 0.4453,-0.2158 0.4993,-0.6291 0.0357,-0.1024 0.0768,-0.1947 0.1006,-0.3237 0.3712,-0.4124 0.1344,-0.919 -0.1281,-1.0763l0 0zm-0.2029 -0.0732c-0.0138,0.1711 -0.9045,-0.5953 -0.7508,-0.6209 0.4178,-0.0686 0.7645,0.1756 0.7508,0.6209l0 0zm-0.3933 0.8514c-0.2241,0.1444 -0.5468,0.0512 -0.7206,-0.2085 -0.1737,-0.2597 -0.1334,-0.5871 0.0906,-0.7316 0.224,-0.1445 0.5468,-0.0512 0.7206,0.2085 0.1737,0.2598 0.1335,0.5871 -0.0906,0.7316zm-0.6209 -2.6364c0.0074,0.0384 0.0165,0.0622 0.0265,0.0695 0.0495,-0.0531 0.0896,-0.107 0.1537,-0.1582 0,0.0302 -0.0156,0.0622 0.0228,0.086 0.0339,-0.0458 0.0805,-0.0869 0.1418,-0.1217 -0.0293,0.0512 -0.0056,0.0668 0.011,0.0878 0.0466,-0.0402 0.0914,-0.0805 0.1773,-0.1125 -0.0238,0.0284 -0.0567,0.0567 -0.0219,0.0896 0.0485,-0.0301 0.097,-0.0603 0.2112,-0.0813 -0.0256,0.0283 -0.0795,0.0576 -0.0466,0.0859 0.0603,-0.0228 0.128,-0.0402 0.2021,-0.0493 -0.0357,0.0293 -0.0649,0.0576 -0.0357,0.0804 0.0649,-0.0201 0.1546,-0.0466 0.2414,-0.0237l-0.0548 0.0557c-0.0065,0.0073 0.129,0.0055 0.2185,0.0073 -0.0329,0.0458 -0.0658,0.0888 -0.085,0.1665 0.0092,0.0092 0.0531,0.0036 0.0951,0 -0.043,0.0905 -0.117,0.1125 -0.1345,0.1518 0.0266,0.0201 0.0623,0.0146 0.1025,0.0009 -0.0311,0.0631 -0.0951,0.107 -0.1463,0.1582 0.0128,0.0091 0.0357,0.0147 0.0887,0.0082 -0.0476,0.0503 -0.1043,0.0961 -0.1719,0.1372 0.0118,0.0137 0.053,0.0137 0.0914,0.0146 -0.0613,0.0595 -0.1399,0.0906 -0.214,0.1299 0.0366,0.0247 0.0631,0.0192 0.0914,0.0192 -0.052,0.043 -0.1407,0.0649 -0.2231,0.0914 0.0156,0.0247 0.0312,0.0312 0.0649,0.0375 -0.0868,0.0485 -0.2121,0.0265 -0.2468,0.0513 0.0082,0.0247 0.0329,0.0401 0.0612,0.053 -0.1408,0.0082 -0.5239,-0.0056 -0.5981,-0.2954 0.1436,-0.1582 0.4061,-0.343 0.8569,-0.5725 -0.3511,0.1171 -0.6675,0.2744 -0.9327,0.4893 -0.3137,-0.1454 -0.0988,-0.5112 0.053,-0.6566l0 0zm-0.3146 1.0479c0.2214,-0.0027 0.4948,0.1629 0.4939,0.3174 -0.001,0.1372 -0.1921,0.2478 -0.492,0.246 -0.2936,-0.0037 -0.4911,-0.1391 -0.4902,-0.2726 0,-0.1087 0.2396,-0.2971 0.4883,-0.2908zm-1.1248 -0.117c0.0339,-0.0063 0.0494,-0.0137 0.065,-0.0375 -0.0823,-0.0256 -0.171,-0.0484 -0.2232,-0.0914 0.0284,0 0.0549,0.0064 0.0915,-0.0192 -0.0741,-0.0393 -0.1527,-0.0704 -0.214,-0.1299 0.0385,-0.0009 0.0796,0 0.0915,-0.0146 -0.0677,-0.0411 -0.1244,-0.0869 -0.1719,-0.1372 0.053,0.0065 0.0759,0.0009 0.0887,-0.0082 -0.0513,-0.0512 -0.1162,-0.0951 -0.1463,-0.1582 0.0393,0.0137 0.0759,0.0183 0.1023,-0.0009 -0.0173,-0.0384 -0.0914,-0.0613 -0.1343,-0.1518 0.042,0.0036 0.0859,0.0092 0.095,0 -0.0192,-0.0777 -0.053,-0.1216 -0.085,-0.1665 0.0896,-0.0008 0.2249,0 0.2185,-0.0073l-0.0548 -0.0557c0.0868,-0.0229 0.1764,0.0036 0.2414,0.0237 0.0293,-0.0228 -0.0009,-0.0511 -0.0357,-0.0804 0.0741,0.01 0.1409,0.0265 0.2021,0.0493 0.0321,-0.0283 -0.021,-0.0576 -0.0466,-0.0859 0.1143,0.021 0.1628,0.0512 0.2112,0.0813 0.0347,-0.0329 0.0019,-0.0612 -0.0219,-0.0896 0.0859,0.0312 0.1308,0.0723 0.1774,0.1125 0.0155,-0.021 0.0402,-0.0366 0.011,-0.0878 0.0613,0.0348 0.1079,0.0759 0.1417,0.1217 0.0375,-0.0238 0.0229,-0.0568 0.0229,-0.086 0.064,0.0512 0.1042,0.1051 0.1536,0.1582 0.01,-0.0073 0.0183,-0.0311 0.0265,-0.0695 0.1518,0.1454 0.3667,0.5112 0.0549,0.6566 -0.2653,-0.2149 -0.5816,-0.3722 -0.9328,-0.4893 0.4509,0.2287 0.7133,0.4143 0.8569,0.5725 -0.0732,0.2908 -0.4572,0.3036 -0.5981,0.2954 0.0284,-0.0129 0.053,-0.0293 0.0613,-0.053 -0.0366,-0.0256 -0.1609,-0.0037 -0.2488,-0.0513l0 0zm0.5496 0.2204c0.1537,0.0256 -0.737,0.791 -0.7507,0.6209 -0.0137,-0.4453 0.3337,-0.6904 0.7507,-0.6209zm-0.9455 1.7082c-0.2167,-0.1719 -0.2862,-0.6739 0.1152,-0.8989 0.2424,-0.064 0.0823,0.9858 -0.1152,0.8989zm0.8322 0.898c-0.1216,0.0722 -0.4189,0.043 -0.6292,-0.2551 -0.1418,-0.2506 -0.1235,-0.5048 -0.0238,-0.5798 0.1491,-0.0896 0.3796,0.0311 0.5569,0.2342 0.1546,0.1828 0.225,0.5056 0.0961,0.6007l0 0zm-0.2415 -1.0946c-0.224,-0.1445 -0.2642,-0.4719 -0.0905,-0.7316 0.1738,-0.2597 0.4966,-0.3529 0.7206,-0.2085 0.224,0.1445 0.2643,0.4719 0.0905,0.7316 -0.1747,0.2597 -0.4974,0.353 -0.7206,0.2085l0 0zm0.9346 1.6049c-0.2688,0.011 -0.5322,-0.2167 -0.5285,-0.2954 -0.0037,-0.1161 0.3273,-0.2067 0.5422,-0.2011 0.2168,-0.0093 0.5085,0.0685 0.5094,0.1728 0.0045,0.1006 -0.2634,0.3282 -0.5231,0.3237l0 0zm0.5386 -1.1422c0.0019,0.2716 -0.2395,0.492 -0.5376,0.4938 -0.2981,0.0018 -0.5415,-0.2176 -0.5432,-0.4883l0 -0.0055c-0.0019,-0.2716 0.2395,-0.492 0.5376,-0.4937 0.2981,-0.0019 0.5414,0.2175 0.5432,0.4882l0 0.0055 0 0zm0.7517 0.3905c-0.2314,0.3164 -0.545,0.3282 -0.6611,0.2405 -0.1217,-0.1134 -0.0293,-0.4655 0.1381,-0.6584 0.191,-0.2131 0.3959,-0.3521 0.5386,-0.2432 0.096,0.0941 0.1526,0.449 -0.0156,0.6611zm0.2094 -0.6694c-0.1966,0.086 -0.3566,-0.9629 -0.1152,-0.8989 0.4014,0.2259 0.3319,0.7279 0.1152,0.8989z"/>
   <path id="_404731432" class="fil40" d="M13.3647 7.752l-0.5303 0 -0.3187 -0.5274c-0.0238,-0.04 -0.0467,-0.0758 -0.0686,-0.1072 -0.0219,-0.0314 -0.0443,-0.0581 -0.0672,-0.08 -0.0219,-0.0229 -0.0453,-0.0401 -0.07,-0.0515 -0.0239,-0.0124 -0.0501,-0.0186 -0.0786,-0.0186l-0.1244 0 0 0.7847 -0.4616 0 0 -2.0496 0.7317 0c0.4974,0 0.7461,0.1858 0.7461,0.5575 0,0.0714 -0.011,0.1377 -0.0329,0.1986 -0.0219,0.06 -0.0529,0.1144 -0.0928,0.1629 -0.0401,0.0486 -0.0887,0.0906 -0.1458,0.1258 -0.0562,0.0353 -0.1192,0.0629 -0.1887,0.0829l0 0.0057c0.0305,0.0095 0.06,0.0253 0.0886,0.0472 0.0286,0.021 0.0562,0.0457 0.0829,0.0743 0.0267,0.0286 0.052,0.0596 0.0758,0.0929 0.0247,0.0324 0.0471,0.0643 0.0671,0.0957l0.3874 0.6061zm-1.2578 -1.7037l0 0.5703 0.2001 0c0.0991,0 0.1787,-0.0286 0.2387,-0.0858 0.061,-0.0581 0.0915,-0.1301 0.0915,-0.2158 0,-0.1791 -0.1072,-0.2687 -0.3216,-0.2687l-0.2087 0zm2.7107 1.7037l-0.4274 0 0 -0.2102 -0.0057 0c-0.0982,0.1639 -0.2435,0.2459 -0.4359,0.2459 -0.1419,0 -0.2539,-0.04 -0.3358,-0.12 -0.0811,-0.0811 -0.1216,-0.1887 -0.1216,-0.3231 0,-0.2839 0.1682,-0.4478 0.5046,-0.4916l0.3973 -0.0529c0,-0.16 -0.0867,-0.2401 -0.2602,-0.2401 -0.1743,0 -0.3401,0.0519 -0.4973,0.1557l0 -0.3401c0.0629,-0.0324 0.1486,-0.0609 0.2573,-0.0857 0.1095,-0.0248 0.2091,-0.0372 0.2987,-0.0372 0.4173,0 0.626,0.2082 0.626,0.6246l0 0.8747zm-0.4245 -0.5946l0 -0.0986 -0.2658 0.0343c-0.1468,0.0191 -0.2201,0.0853 -0.2201,0.1986 0,0.0515 0.0176,0.0939 0.0528,0.1273 0.0363,0.0323 0.0848,0.0486 0.1458,0.0486 0.0848,0 0.1539,-0.0291 0.2072,-0.0872 0.0534,-0.0591 0.0801,-0.1334 0.0801,-0.223zm0.7211 0.556l0 -0.3659c0.0744,0.0448 0.1482,0.0781 0.2216,0.1 0.0743,0.0219 0.1443,0.0329 0.2101,0.0329 0.08,0 0.1428,-0.011 0.1887,-0.0329 0.0466,-0.0219 0.0699,-0.0552 0.0699,-0.1 0,-0.0286 -0.0104,-0.0524 -0.0314,-0.0715 -0.0209,-0.019 -0.0481,-0.0357 -0.0815,-0.05 -0.0324,-0.0143 -0.068,-0.0272 -0.1071,-0.0386 -0.0391,-0.0114 -0.0767,-0.0243 -0.113,-0.0386 -0.0581,-0.0219 -0.1095,-0.0453 -0.1543,-0.07 -0.0438,-0.0257 -0.081,-0.0553 -0.1115,-0.0886 -0.0295,-0.0334 -0.0524,-0.0719 -0.0686,-0.1158 -0.0152,-0.0438 -0.0229,-0.0958 -0.0229,-0.1558 0,-0.0819 0.0176,-0.1524 0.0529,-0.2115 0.0362,-0.0591 0.0839,-0.1072 0.1429,-0.1443 0.0601,-0.0382 0.1282,-0.0658 0.2044,-0.0829 0.0772,-0.0181 0.1572,-0.0272 0.2401,-0.0272 0.0649,0 0.1306,0.0053 0.1973,0.0157 0.0667,0.0095 0.1324,0.0238 0.1972,0.0429l0 0.3488c-0.0572,-0.0334 -0.1186,-0.0582 -0.1843,-0.0744 -0.0649,-0.0172 -0.1287,-0.0257 -0.1916,-0.0257 -0.0296,0 -0.0577,0.0028 -0.0844,0.0085 -0.0256,0.0048 -0.0485,0.0124 -0.0685,0.0229 -0.02,0.0096 -0.0357,0.0224 -0.0472,0.0386 -0.0114,0.0152 -0.0172,0.0329 -0.0172,0.0529 0,0.0266 0.0087,0.0496 0.0258,0.0686 0.0172,0.019 0.0395,0.0358 0.0672,0.05 0.0276,0.0134 0.0581,0.0258 0.0914,0.0372 0.0343,0.0105 0.0682,0.0214 0.1015,0.0329 0.06,0.0209 0.1143,0.0438 0.1629,0.0686 0.0486,0.0247 0.0901,0.0538 0.1244,0.0871 0.0352,0.0334 0.0619,0.0725 0.0801,0.1172 0.019,0.0448 0.0285,0.0982 0.0285,0.1601 0,0.0867 -0.019,0.1611 -0.0571,0.223 -0.0372,0.0609 -0.0872,0.111 -0.1501,0.15 -0.062,0.0381 -0.1339,0.0658 -0.2158,0.0829 -0.081,0.0182 -0.1654,0.0272 -0.253,0.0272 -0.161,0 -0.3101,-0.0247 -0.4474,-0.0743zm1.8775 -0.1315l-0.0058 0 0 0.8432 -0.4516 0 0 -2.1367 0.4516 0 0 0.2201 0.0058 0c0.1114,-0.1705 0.2681,-0.2558 0.4701,-0.2558 0.1897,0 0.3359,0.0653 0.4388,0.1958 0.1039,0.1296 0.1558,0.3063 0.1558,0.5302 0,0.2439 -0.0605,0.4398 -0.1815,0.5875 -0.12,0.1476 -0.2801,0.2215 -0.4802,0.2215 -0.1763,0 -0.3106,-0.0686 -0.403,-0.2058zm-0.0129 -0.6003l0 0.1172c0,0.101 0.0267,0.1834 0.0801,0.2472 0.0533,0.0639 0.1233,0.0958 0.21,0.0958 0.103,0 0.1825,-0.0395 0.2387,-0.1186 0.0571,-0.0801 0.0857,-0.193 0.0857,-0.3387 0,-0.2573 -0.1,-0.3859 -0.3001,-0.3859 -0.0924,0 -0.1682,0.0352 -0.2273,0.1057 -0.0581,0.0696 -0.0871,0.162 -0.0871,0.2773zm1.8631 0.6003l-0.0058 0 0 0.1701 -0.4515 0 0 -2.1667 0.4515 0 0 0.9232 0.0058 0c0.1114,-0.1705 0.2702,-0.2558 0.4759,-0.2558 0.1887,0 0.334,0.0648 0.4359,0.1944 0.102,0.1295 0.153,0.3068 0.153,0.5316 0,0.2439 -0.0596,0.4398 -0.1787,0.5875 -0.1191,0.1476 -0.2782,0.2215 -0.4774,0.2215 -0.18,0 -0.3163,-0.0686 -0.4087,-0.2058zm-0.0128 -0.6175l0 0.1501c0,0.0943 0.0271,0.1725 0.0814,0.2344 0.0543,0.062 0.1238,0.0929 0.2086,0.0929 0.1029,0 0.1825,-0.0395 0.2387,-0.1186 0.0572,-0.0801 0.0858,-0.193 0.0858,-0.3387 0,-0.121 -0.0262,-0.2154 -0.0786,-0.283 -0.0515,-0.0687 -0.1253,-0.1029 -0.2215,-0.1029 -0.0906,0 -0.1658,0.0338 -0.2259,0.1014 -0.059,0.0677 -0.0885,0.1559 -0.0885,0.2644zm2.7206 0.1844l-0.9548 0c0.0153,0.2125 0.1492,0.3188 0.4017,0.3188 0.161,0 0.3024,-0.0382 0.4244,-0.1144l0 0.3259c-0.1352,0.0724 -0.3111,0.1086 -0.5273,0.1086 -0.2364,0 -0.4197,-0.0653 -0.5503,-0.1958 -0.1305,-0.1315 -0.1958,-0.3145 -0.1958,-0.5488 0,-0.243 0.0705,-0.4355 0.2115,-0.5775 0.1411,-0.1419 0.3144,-0.2129 0.5203,-0.2129 0.2134,0 0.3783,0.0634 0.4945,0.1901 0.1172,0.1267 0.1758,0.2987 0.1758,0.516l0 0.19zm-0.4188 -0.2772c0,-0.2096 -0.0848,-0.3144 -0.2544,-0.3144 -0.0724,0 -0.1353,0.0299 -0.1886,0.0899 -0.0525,0.0601 -0.0844,0.1349 -0.0958,0.2245l0.5388 0zm1.6773 -0.1759c-0.0543,-0.0295 -0.1177,-0.0442 -0.1901,-0.0442 -0.0982,0 -0.1749,0.0361 -0.2301,0.1086 -0.0552,0.0714 -0.0829,0.1691 -0.0829,0.293l0 0.6989 -0.4516 0 0 -1.4636 0.4516 0 0 0.2716 0.0058 0c0.0714,-0.1982 0.2,-0.2973 0.3858,-0.2973 0.0477,0 0.0849,0.0057 0.1115,0.0172l0 0.4158zm1.2014 0c-0.0542,-0.0295 -0.1176,-0.0442 -0.1901,-0.0442 -0.0981,0 -0.1748,0.0361 -0.23,0.1086 -0.0555,0.0714 -0.083,0.1691 -0.083,0.293l0 0.6989 -0.4517 0 0 -1.4636 0.4517 0 0 0.2716 0.0057 0c0.0714,-0.1982 0.2,-0.2973 0.386,-0.2973 0.0476,0 0.0847,0.0057 0.1114,0.0172l0 0.4158zm1.7575 -0.4073l-0.5946 1.5808c-0.1431,0.3802 -0.3583,0.5702 -0.6462,0.5702 -0.1094,0 -0.1996,-0.0124 -0.27,-0.0372l0 -0.3601c0.0599,0.0353 0.1252,0.0529 0.1957,0.0529 0.1163,0 0.1973,-0.0548 0.2429,-0.1644l0.0773 -0.1815 -0.5946 -1.4607 0.5002 0 0.273 0.8904c0.0171,0.0553 0.0306,0.1206 0.0402,0.1958l0.0056 0c0.0086,-0.0552 0.0242,-0.1195 0.047,-0.1929l0.276 -0.8933 0.4475 0zm1.618 0.7575l0 0.7061 -0.4617 0 0 -2.0496 0.7232 0c0.5163,0 0.7747,0.2178 0.7747,0.6532 0,0.2058 -0.0744,0.3725 -0.2231,0.5003 -0.1477,0.1267 -0.3453,0.19 -0.593,0.19l-0.2201 0zm0 -0.989l0 0.6388 0.1815 0c0.2458,0 0.3688,-0.1076 0.3688,-0.3229 0,-0.2107 -0.123,-0.3159 -0.3688,-0.3159l-0.1815 0zm1.6072 0c-0.0761,0 -0.1386,-0.0224 -0.1871,-0.0672 -0.0486,-0.0457 -0.0731,-0.1015 -0.0731,-0.1672 0,-0.0677 0.0245,-0.1229 0.0731,-0.1658 0.0485,-0.0428 0.111,-0.0643 0.1871,-0.0643 0.0773,0 0.1397,0.0215 0.1873,0.0643 0.0486,0.0429 0.0728,0.0981 0.0728,0.1658 0,0.0686 -0.0242,0.1248 -0.0728,0.1687 -0.0476,0.0438 -0.11,0.0657 -0.1873,0.0657zm0.223 1.6951l-0.4517 0 0 -1.4636 0.4517 0 0 1.4636z"/>
   <path id="_404731384" class="fil41" style="mask:url(#id1)" d="M30.8223 3.459l-26.929 0c-0.5389,0 -0.9757,0.4368 -0.9757,0.9756l0 4.293c0,0.5389 0.4368,0.9757 0.9757,0.9757l26.929 0c0.5388,0 0.9757,-0.4368 0.9757,-0.9757l0 -4.293c0,-0.5388 -0.4369,-0.9756 -0.9757,-0.9756z"/>
  </g>
  <path class="fil34" d="M16.2961 31.2225c0,0.2897 -0.2349,0.5246 -0.5245,0.5246 -0.2898,0 -0.5247,-0.2349 -0.5247,-0.5246 0,-0.2898 0.2349,-0.5246 0.5247,-0.5246 0.2896,0 0.5245,0.2348 0.5245,0.5246z"/>
  <g id="_285833720">
   <path id="_404731264" class="fil38" d="M30.9013 11.451l-21.8554 0 0 6.2444 21.8554 0c0.5388,0 0.9757,-0.4368 0.9757,-0.9757l0 -4.293c0,-0.5388 -0.4369,-0.9757 -0.9757,-0.9757z"/>
   <path id="_404731192" class="fil40" d="M9.0459 11.451l-5.0736 0c-0.5388,0 -0.9757,0.4369 -0.9757,0.9757l0 4.293c0,0.5389 0.4369,0.9757 0.9757,0.9757l5.0736 0 0 -6.2444z"/>
   <g>
   </g>
   <g style="clip-path:url(#id3)">
    <g id="_308562072">
     <path id="_308562648" class="fil42" d="M4.6246 15.6991l0.5032 -3.2202c0.007,-0.0453 0.046,-0.0786 0.0918,-0.0786 0.0343,0 0.0658,0.0189 0.0819,0.0491l0.5204 0.9706 0.2075 -0.3949c0.0161,-0.0306 0.0477,-0.0497 0.0822,-0.0497 0.0345,0 0.0662,0.0191 0.0823,0.0497l1.4044 2.674 -2.9737 0z"/>
     <polygon id="_308562576" class="fil43" style="mask:url(#id4)" points="6.3437,12.4234 3.8811,12.2143 3.8811,16.6748 4.6246,15.6991 "/>
     <polygon id="_308562504" class="fil44" points="6.363,14.4448 5.8217,13.4198 4.6246,15.6991 "/>
     <polygon id="_308562432" class="fil45" style="mask:url(#id6)" points="3.8811,12.2143 8.3417,12.2143 8.3417,16.6748 3.8811,16.6748 "/>
     <path id="_308562360" class="fil46" d="M7.5983 15.6991l-0.3855 -2.385c-0.0075,-0.0447 -0.0463,-0.0774 -0.0916,-0.0774 -0.0246,0 -0.0482,0.0098 -0.0656,0.0272l-2.431 2.4352 1.3451 0.7543c0.0415,0.0232 0.0884,0.0354 0.1359,0.0354 0.0476,0 0.0944,-0.0122 0.1359,-0.0354l1.3568 -0.7543z"/>
     <path id="_308562288" class="fil47" d="M7.2128 13.3141c-0.0075,-0.0447 -0.0463,-0.0774 -0.0916,-0.0774 -0.0246,0 -0.0482,0.0098 -0.0656,0.0272l-0.4823 0.4837 -0.3797 -0.7228c-0.016,-0.0305 -0.0477,-0.0496 -0.0822,-0.0496 -0.0345,0 -0.0662,0.0191 -0.0822,0.0496l-0.2075 0.395 -0.5204 -0.9704c-0.0162,-0.0302 -0.0477,-0.0491 -0.0819,-0.0491 -0.0459,0 -0.0849,0.0335 -0.0919,0.0788l-0.5029 3.22 -0.0019 0 0.0016 0.0018 0.0133 0.0065 1.9345 -1.9366 0.4827 -0.4832c0.0175,-0.0175 0.0412,-0.0274 0.0659,-0.0274 0.0454,0 0.0842,0.0328 0.0917,0.0776l0.3821 2.3636 0.0038 -0.0023 -0.3855 -2.385zm-2.5838 2.3806l0.4988 -3.1926c0.0069,-0.0453 0.0459,-0.0788 0.0918,-0.0788 0.0343,0 0.0658,0.0189 0.0819,0.0491l0.5204 0.9706 0.2075 -0.3949c0.0161,-0.0306 0.0477,-0.0497 0.0822,-0.0497 0.0345,0 0.0662,0.0191 0.0823,0.0497l0.3717 0.7069 -1.9366 1.9397z"/>
     <path id="_308562216" class="fil48" d="M6.2415 16.4307c-0.0415,0.0231 -0.0883,0.0353 -0.1359,0.0353 -0.0475,0 -0.0944,-0.0122 -0.1359,-0.0353l-1.3419 -0.7528 -0.0032 0.0212 1.3451 0.7541c0.0415,0.0232 0.0884,0.0354 0.1359,0.0354 0.0476,0 0.0944,-0.0122 0.1359,-0.0354l1.3568 -0.7541 -0.0035 -0.0214 -1.3533 0.753z"/>
     <path id="_308562168" class="fil49" style="mask:url(#id8)" d="M7.2128 13.3141c-0.0075,-0.0447 -0.0463,-0.0774 -0.0916,-0.0774 -0.0246,0 -0.0482,0.0098 -0.0656,0.0272l-0.4823 0.4837 -0.3797 -0.7228c-0.016,-0.0305 -0.0477,-0.0496 -0.0822,-0.0496 -0.0345,0 -0.0662,0.0191 -0.0822,0.0496l-0.2075 0.395 -0.5204 -0.9704c-0.0162,-0.0302 -0.0477,-0.0491 -0.0819,-0.0491 -0.0459,0 -0.0849,0.0335 -0.0919,0.0788l-0.5029 3.22 1.3451 0.7541c0.0415,0.0232 0.0884,0.0354 0.1359,0.0354 0.0476,0 0.0944,-0.0122 0.1359,-0.0354l1.3568 -0.7541 -0.3855 -2.385z"/>
    </g>
   </g>
   <path class="fil0" d="M7.2128 13.3141c-0.0075,-0.0447 -0.0463,-0.0774 -0.0916,-0.0774 -0.0246,0 -0.0482,0.0098 -0.0656,0.0272l-0.4823 0.4837 -0.3797 -0.7228c-0.016,-0.0305 -0.0477,-0.0496 -0.0822,-0.0496 -0.0345,0 -0.0662,0.0191 -0.0822,0.0496l-0.2075 0.395 -0.5204 -0.9704c-0.0162,-0.0302 -0.0477,-0.0491 -0.0819,-0.0491 -0.0459,0 -0.0849,0.0335 -0.0919,0.0788l-0.5029 3.22 1.3451 0.7541c0.0415,0.0232 0.0884,0.0354 0.1359,0.0354 0.0476,0 0.0944,-0.0122 0.1359,-0.0354l1.3568 -0.7541 -0.3855 -2.385z"/>
   <circle class="fil40" cx="7.22655" cy="15.5597" r="0.929278"/>
   <path class="fil50" d="M6.8084 15.6991l0.8363 0 0 0.1859c0,0 0,0.0001 0,0.0001 0,0.0512 -0.0415,0.0927 -0.0927,0.0928l-0.6509 0c-0.0512,-0.0001 -0.0927,-0.0417 -0.0927,-0.0929l0 -0.1859zm0.0927 -0.1862c0,-0.0512 0.0414,-0.0926 0.0927,-0.0926l0.6509 0c0.0512,0 0.0927,0.0418 0.0927,0.0926l0 0.3259c0,0.0512 -0.0415,0.0926 -0.0927,0.0926l-0.6509 0c-0.0512,0 -0.0927,-0.0418 -0.0927,-0.0926l0 -0.3259zm0.0929 0.0003l0.6505 0 0 0.1394 -0.6505 0 0 -0.1394zm0 0.2558c0,-0.013 0.0099,-0.0235 0.0235,-0.0235l0.046 0c0.013,0 0.0234,0.01 0.0234,0.0235l0 0.046c0,0.0001 0,0.0002 0,0.0004 0,0.0127 -0.0103,0.0231 -0.0231,0.0231 -0.0001,0 -0.0002,0 -0.0003,0l-0.046 0c-0.0002,0 -0.0003,0 -0.0004,0 -0.0128,0 -0.0231,-0.0104 -0.0231,-0.0231 0,-0.0002 0,-0.0003 0,-0.0004l0 -0.046zm0.0235 0.3947c0,-0.013 0.0099,-0.0234 0.0234,-0.0234l0.046 0c0.013,0 0.0235,0.0099 0.0235,0.0234l0 0.046c0,0.0001 0,0.0003 0,0.0004 0,0.0127 -0.0103,0.0231 -0.0231,0.0231 -0.0001,0 -0.0003,0 -0.0004,0l-0.046 0c-0.0001,0 -0.0002,0 -0.0003,0 -0.0128,0 -0.0231,-0.0104 -0.0231,-0.0231 0,-0.0001 0,-0.0003 0,-0.0004l0 -0.046z"/>
   <path class="fil40" d="M10.9334 16.5795l-0.5363 0 0 -1.7537 0.5363 0c0.2694,0 0.485,0.0813 0.6467,0.2438 0.1617,0.1624 0.2425,0.3734 0.2425,0.6332 0,0.2596 -0.0808,0.4705 -0.2425,0.6329 -0.1617,0.1625 -0.3773,0.2438 -0.6467,0.2438zm-0.311 -1.538l0 1.3225 0.311 0c0.2026,0 0.363,-0.058 0.4814,-0.1739 0.1184,-0.1159 0.1776,-0.2785 0.1776,-0.4873 0,-0.2075 -0.0592,-0.3695 -0.1776,-0.4863 -0.1184,-0.1167 -0.2788,-0.175 -0.4814,-0.175l-0.311 0zm1.8074 1.5772c-0.1272,0 -0.2337,-0.0367 -0.3195,-0.1102 -0.0857,-0.0735 -0.1285,-0.1707 -0.1285,-0.2914 0,-0.1307 0.0505,-0.2332 0.1517,-0.3076 0.1013,-0.0741 0.2262,-0.1113 0.3748,-0.1113 0.1323,0 0.2409,0.0245 0.3257,0.0735l0 -0.0342c0,-0.0884 -0.0302,-0.159 -0.0905,-0.2121 -0.0605,-0.053 -0.1348,-0.0796 -0.2229,-0.0796 -0.0654,0 -0.1245,0.0156 -0.1776,0.0467 -0.0531,0.031 -0.0894,0.0734 -0.1091,0.1272l-0.2057 -0.0881c0.0278,-0.0719 0.0826,-0.1384 0.1642,-0.1997 0.0817,-0.0612 0.1894,-0.0918 0.3232,-0.0918 0.1534,0 0.2808,0.045 0.3821,0.1347 0.1013,0.0898 0.152,0.2164 0.152,0.3796l0 0.7251 -0.2157 0 0 -0.1665 -0.0098 0c-0.0898,0.1372 -0.2212,0.2057 -0.3944,0.2057zm0.0368 -0.2057c0.0931,0 0.1776,-0.0347 0.2535,-0.1041 0.0759,-0.0694 0.1139,-0.1515 0.1139,-0.2463 -0.0637,-0.0521 -0.1591,-0.0782 -0.2864,-0.0782 -0.1095,0 -0.1919,0.0236 -0.2475,0.071 -0.0555,0.0473 -0.0832,0.1028 -0.0832,0.1664 0,0.0588 0.0252,0.1054 0.0758,0.1398 0.0506,0.0343 0.1086,0.0514 0.1739,0.0514l0 0zm1.2956 0.186c-0.1256,0 -0.2216,-0.0334 -0.2878,-0.1003 -0.0661,-0.067 -0.0991,-0.1616 -0.0991,-0.2841l0 -0.6296 -0.2107 0 0 -0.2057 0.2107 0 0 -0.3673 0.2254 0 0 0.3673 0.2939 0 0 0.2057 -0.2939 0 0 0.6123c0,0.1307 0.0539,0.196 0.1615,0.196 0.0408,0 0.0752,-0.0065 0.103,-0.0195l0.0784 0.1934c-0.049,0.0212 -0.1095,0.0318 -0.1814,0.0318l0 0zm0.703 0.0197c-0.1273,0 -0.2338,-0.0367 -0.3195,-0.1102 -0.0858,-0.0735 -0.1286,-0.1707 -0.1286,-0.2914 0,-0.1307 0.0505,-0.2332 0.1517,-0.3076 0.1013,-0.0741 0.2262,-0.1113 0.3748,-0.1113 0.1322,0 0.2408,0.0245 0.3257,0.0735l0 -0.0342c0,-0.0884 -0.0302,-0.159 -0.0907,-0.2121 -0.0603,-0.053 -0.1345,-0.0796 -0.2227,-0.0796 -0.0653,0 -0.1245,0.0156 -0.1776,0.0467 -0.053,0.031 -0.0894,0.0734 -0.109,0.1272l-0.2057 -0.0881c0.0276,-0.0719 0.0823,-0.1384 0.1639,-0.1997 0.0817,-0.0612 0.1895,-0.0918 0.3234,-0.0918 0.1535,0 0.2809,0.045 0.3822,0.1347 0.1011,0.0898 0.1516,0.2164 0.1516,0.3796l0 0.7251 -0.2154 0 0 -0.1665 -0.0097 0c-0.0898,0.1372 -0.2213,0.2057 -0.3944,0.2057l0 0zm0.0368 -0.2057c0.0931,0 0.1776,-0.0347 0.2535,-0.1041 0.0759,-0.0694 0.1138,-0.1515 0.1138,-0.2463 -0.0636,-0.0521 -0.1592,-0.0782 -0.2866,-0.0782 -0.1094,0 -0.1918,0.0236 -0.2472,0.071 -0.0557,0.0473 -0.0835,0.1028 -0.0835,0.1664 0,0.0588 0.0254,0.1054 0.076,0.1398 0.0507,0.0343 0.1086,0.0514 0.174,0.0514l0 0zm1.4475 0.2057c-0.0915,0 -0.1736,-0.0196 -0.2463,-0.0587 -0.0726,-0.0393 -0.1269,-0.0883 -0.1628,-0.147l-0.0098 0 0 0.1665 -0.2155 0 0 -1.7537 0.2253 0 0 0.5535 -0.0098 0.1665 0.0098 0c0.0359,-0.0587 0.0902,-0.1076 0.1628,-0.1469 0.0727,-0.0392 0.1548,-0.0588 0.2463,-0.0588 0.1551,0 0.289,0.0612 0.4016,0.1837 0.1126,0.1225 0.169,0.2743 0.169,0.4556 0,0.1813 -0.0564,0.3332 -0.169,0.4556 -0.1126,0.1225 -0.2465,0.1837 -0.4016,0.1837l0 0zm-0.0368 -0.2057c0.1045,0 0.1943,-0.0396 0.2694,-0.1188 0.0752,-0.0792 0.1127,-0.1842 0.1127,-0.3148 0,-0.1306 -0.0375,-0.2355 -0.1127,-0.3148 -0.0751,-0.0792 -0.1649,-0.1188 -0.2694,-0.1188 -0.1061,0 -0.1964,0.0392 -0.2708,0.1177 -0.0742,0.0783 -0.1113,0.1836 -0.1113,0.3159 0,0.1323 0.0371,0.2376 0.1113,0.3159 0.0744,0.0785 0.1646,0.1177 0.2708,0.1177zm1.1804 0.2057c-0.1273,0 -0.2338,-0.0367 -0.3195,-0.1102 -0.0857,-0.0735 -0.1286,-0.1707 -0.1286,-0.2914 0,-0.1307 0.0506,-0.2332 0.1519,-0.3076 0.1012,-0.0741 0.226,-0.1113 0.3747,-0.1113 0.1322,0 0.2408,0.0245 0.3256,0.0735l0 -0.0342c0,-0.0884 -0.0302,-0.159 -0.0905,-0.2121 -0.0604,-0.053 -0.1347,-0.0796 -0.2229,-0.0796 -0.0653,0 -0.1245,0.0156 -0.1775,0.0467 -0.0531,0.031 -0.0894,0.0734 -0.1091,0.1272l-0.2057 -0.0881c0.0278,-0.0719 0.0825,-0.1384 0.1641,-0.1997 0.0817,-0.0612 0.1894,-0.0918 0.3232,-0.0918 0.1536,0 0.281,0.045 0.3822,0.1347 0.1012,0.0898 0.1518,0.2164 0.1518,0.3796l0 0.7251 -0.2156 0 0 -0.1665 -0.0097 0c-0.0898,0.1372 -0.2213,0.2057 -0.3944,0.2057zm0.0367 -0.2057c0.0932,0 0.1777,-0.0347 0.2536,-0.1041 0.0759,-0.0694 0.1138,-0.1515 0.1138,-0.2463 -0.0636,-0.0521 -0.1591,-0.0782 -0.2864,-0.0782 -0.1095,0 -0.1919,0.0236 -0.2474,0.071 -0.0555,0.0473 -0.0833,0.1028 -0.0833,0.1664 0,0.0588 0.0254,0.1054 0.076,0.1398 0.0505,0.0343 0.1084,0.0514 0.1737,0.0514l0 0zm1.2468 0.2057c-0.1339,0 -0.2446,-0.0327 -0.3319,-0.098 -0.0874,-0.0653 -0.1515,-0.1469 -0.1923,-0.2449l0.2009 -0.0832c0.0636,0.1501 0.1722,0.2252 0.3256,0.2252 0.0703,0 0.1279,-0.0155 0.1728,-0.0465 0.0449,-0.031 0.0673,-0.0718 0.0673,-0.1225 0,-0.0783 -0.0547,-0.1314 -0.1641,-0.1592l-0.2424 -0.0587c-0.0768,-0.0197 -0.1494,-0.0568 -0.218,-0.1116 -0.0686,-0.0546 -0.1029,-0.1284 -0.1029,-0.2216 0,-0.1061 0.0469,-0.1922 0.1408,-0.2582 0.0939,-0.0663 0.2053,-0.0994 0.3343,-0.0994 0.1061,0 0.2009,0.0241 0.2842,0.0724 0.0832,0.048 0.1429,0.117 0.1788,0.2068l-0.1959 0.0809c-0.0442,-0.1061 -0.1356,-0.1591 -0.2744,-0.1591 -0.067,0 -0.1233,0.0138 -0.169,0.0415 -0.0457,0.0278 -0.0686,0.0654 -0.0686,0.1126 0,0.0687 0.0531,0.1153 0.1592,0.1398l0.2376 0.0562c0.1127,0.0262 0.1959,0.071 0.2499,0.1347 0.0538,0.0636 0.0807,0.1355 0.0807,0.2157 0,0.1076 -0.044,0.1974 -0.1322,0.2694 -0.0881,0.0718 -0.2016,0.1077 -0.3404,0.1077l0 0zm1.2247 0c-0.1813,0 -0.3287,-0.0604 -0.4422,-0.1812 -0.1135,-0.1209 -0.1701,-0.2736 -0.1701,-0.4581 0,-0.1747 0.0551,-0.3249 0.1653,-0.4506 0.1102,-0.1257 0.251,-0.1887 0.4225,-0.1887 0.1779,0 0.3203,0.058 0.4272,0.174 0.1071,0.1159 0.1606,0.2711 0.1606,0.4653l-0.0025 0.0417 -0.9479 0c0.0064,0.1208 0.0469,0.2163 0.1213,0.2864 0.0742,0.0703 0.1612,0.1055 0.2607,0.1055 0.1617,0 0.2711,-0.0686 0.3282,-0.2059l0.2009 0.0835c-0.0391,0.0929 -0.1036,0.1709 -0.1934,0.2338 -0.0898,0.0628 -0.2,0.0943 -0.3306,0.0943l0 0zm-0.3724 -0.7837l0.6955 0c-0.0048,-0.0687 -0.0363,-0.134 -0.0943,-0.196 -0.0579,-0.0621 -0.144,-0.0932 -0.2584,-0.0932 -0.0832,0 -0.1555,0.0262 -0.2167,0.0785 -0.0612,0.0523 -0.1033,0.1225 -0.1261,0.2107l0 0z"/>
   <path class="fil40" d="M10.7164 13.2998l0 0.7521 -0.2252 0 0 -1.7537 1.0237 0 0 0.2156 -0.7985 0 0 0.5755 0.72 0 0 0.2105 -0.72 0zm1.2221 -0.7493c-0.031,0.031 -0.0685,0.0466 -0.1125,0.0466 -0.0441,0 -0.0817,-0.0156 -0.1127,-0.0466 -0.031,-0.0311 -0.0465,-0.0686 -0.0465,-0.1126 0,-0.0442 0.0155,-0.0817 0.0465,-0.1127 0.031,-0.031 0.0686,-0.0465 0.1127,-0.0465 0.044,0 0.0815,0.0155 0.1125,0.0465 0.0312,0.031 0.0467,0.0685 0.0467,0.1127 0,0.044 -0.0155,0.0815 -0.0467,0.1126zm0 0.3012l0 1.2002 -0.2252 0 0 -1.2002 0.2252 0zm0.4948 0.5438l0 0.6564 -0.2253 0 0 -1.2002 0.2156 0 0 0.196 0.0097 0c0.0229,-0.0653 0.0698,-0.1193 0.1409,-0.1617 0.071,-0.0425 0.1401,-0.0638 0.207,-0.0638 0.0669,0 0.1232,0.0099 0.1689,0.0296l-0.0857 0.2106c-0.0294,-0.0115 -0.0694,-0.0172 -0.1199,-0.0172 -0.0816,0 -0.1539,0.0322 -0.2168,0.0968 -0.0629,0.0644 -0.0944,0.1489 -0.0944,0.2535l0 0zm1.134 0.6955c-0.1812,0 -0.3285,-0.0603 -0.4421,-0.1812 -0.1135,-0.1209 -0.1702,-0.2736 -0.1702,-0.458 0,-0.1748 0.0551,-0.325 0.1653,-0.4506 0.1102,-0.1258 0.251,-0.1887 0.4225,-0.1887 0.1781,0 0.3205,0.058 0.4274,0.174 0.1069,0.1159 0.1604,0.271 0.1604,0.4653l-0.0023 0.0417 -0.948 0c0.0065,0.1208 0.047,0.2163 0.1214,0.2864 0.0742,0.0703 0.1612,0.1054 0.2608,0.1054 0.1616,0 0.271,-0.0686 0.3281,-0.2058l0.2009 0.0834c-0.0393,0.093 -0.1038,0.1709 -0.1936,0.2338 -0.0898,0.0629 -0.2,0.0943 -0.3306,0.0943l0 0zm-0.3722 -0.7837l0.6955 0c-0.0048,-0.0686 -0.0363,-0.1339 -0.0943,-0.1959 -0.0579,-0.0621 -0.144,-0.0932 -0.2583,-0.0932 -0.0833,0 -0.1556,0.0262 -0.2168,0.0785 -0.0613,0.0523 -0.1033,0.1224 -0.1261,0.2106l0 0zm1.7512 0.7837c-0.0915,0 -0.1736,-0.0196 -0.2463,-0.0587 -0.0726,-0.0392 -0.1268,-0.0882 -0.1628,-0.147l-0.0098 0 0 0.1666 -0.2154 0 0 -1.7537 0.2252 0 0 0.5535 -0.0098 0.1665 0.0098 0c0.036,-0.0587 0.0902,-0.1076 0.1628,-0.147 0.0727,-0.0391 0.1548,-0.0587 0.2463,-0.0587 0.1551,0 0.2889,0.0612 0.4016,0.1837 0.1126,0.1224 0.1689,0.2743 0.1689,0.4556 0,0.1812 -0.0563,0.3331 -0.1689,0.4556 -0.1127,0.1224 -0.2465,0.1836 -0.4016,0.1836l0 0zm-0.0368 -0.2057c0.1045,0 0.1943,-0.0395 0.2694,-0.1188 0.0752,-0.0792 0.1128,-0.1841 0.1128,-0.3147 0,-0.1307 -0.0376,-0.2356 -0.1128,-0.3148 -0.0751,-0.0792 -0.1649,-0.1188 -0.2694,-0.1188 -0.1061,0 -0.1963,0.0392 -0.2707,0.1177 -0.0743,0.0783 -0.1114,0.1836 -0.1114,0.3159 0,0.1323 0.0371,0.2376 0.1114,0.3159 0.0744,0.0784 0.1646,0.1176 0.2707,0.1176zm1.1804 0.2057c-0.1273,0 -0.2338,-0.0367 -0.3195,-0.1102 -0.0858,-0.0734 -0.1286,-0.1706 -0.1286,-0.2914 0,-0.1306 0.0507,-0.2331 0.152,-0.3075 0.1011,-0.0742 0.226,-0.1113 0.3746,-0.1113 0.1323,0 0.2408,0.0245 0.3256,0.0734l0 -0.0342c0,-0.0883 -0.0301,-0.1589 -0.0905,-0.212 -0.0604,-0.0531 -0.1348,-0.0796 -0.2229,-0.0796 -0.0653,0 -0.1245,0.0155 -0.1776,0.0466 -0.053,0.0311 -0.0894,0.0735 -0.109,0.1273l-0.2057 -0.0882c0.0278,-0.0718 0.0825,-0.1383 0.1642,-0.1996 0.0816,-0.0612 0.1893,-0.0918 0.3231,-0.0918 0.1536,0 0.281,0.0449 0.3821,0.1347 0.1013,0.0898 0.152,0.2163 0.152,0.3796l0 0.7251 -0.2157 0 0 -0.1666 -0.0097 0c-0.0898,0.1372 -0.2213,0.2057 -0.3944,0.2057zm0.0368 -0.2057c0.0931,0 0.1776,-0.0346 0.2535,-0.1041 0.0759,-0.0693 0.1138,-0.1514 0.1138,-0.2462 -0.0636,-0.0522 -0.1591,-0.0783 -0.2864,-0.0783 -0.1095,0 -0.1919,0.0237 -0.2474,0.071 -0.0555,0.0474 -0.0832,0.1029 -0.0832,0.1665 0,0.0588 0.0252,0.1054 0.076,0.1397 0.0504,0.0343 0.1084,0.0514 0.1737,0.0514l0 0zm1.2468 0.2057c-0.134,0 -0.2446,-0.0326 -0.332,-0.0979 -0.0874,-0.0653 -0.1515,-0.147 -0.1923,-0.2449l0.2009 -0.0833c0.0636,0.1502 0.1722,0.2253 0.3256,0.2253 0.0704,0 0.1279,-0.0156 0.1729,-0.0465 0.0448,-0.031 0.0673,-0.0719 0.0673,-0.1225 0,-0.0784 -0.0547,-0.1314 -0.1642,-0.1592l-0.2424 -0.0588c-0.0768,-0.0196 -0.1495,-0.0568 -0.2179,-0.1115 -0.0687,-0.0546 -0.103,-0.1285 -0.103,-0.2216 0,-0.1061 0.0469,-0.1922 0.1408,-0.2583 0.0939,-0.0662 0.2054,-0.0993 0.3343,-0.0993 0.1062,0 0.2008,0.0241 0.2841,0.0723 0.0833,0.0481 0.143,0.1171 0.1789,0.2068l-0.1959 0.081c-0.0441,-0.1062 -0.1356,-0.1592 -0.2744,-0.1592 -0.0669,0 -0.1232,0.0138 -0.1689,0.0415 -0.0458,0.0278 -0.0687,0.0654 -0.0687,0.1127 0,0.0687 0.053,0.1152 0.1592,0.1397l0.2376 0.0563c0.1127,0.0261 0.196,0.071 0.2499,0.1347 0.0539,0.0636 0.0808,0.1355 0.0808,0.2156 0,0.1077 -0.0441,0.1975 -0.1322,0.2694 -0.0882,0.0719 -0.2017,0.1077 -0.3404,0.1077l0 0zm1.2245 0c-0.1812,0 -0.3286,-0.0603 -0.4421,-0.1812 -0.1135,-0.1209 -0.1702,-0.2736 -0.1702,-0.458 0,-0.1748 0.0552,-0.325 0.1654,-0.4506 0.1102,-0.1258 0.251,-0.1887 0.4224,-0.1887 0.178,0 0.3204,0.058 0.4273,0.174 0.107,0.1159 0.1605,0.271 0.1605,0.4653l-0.0024 0.0417 -0.9479 0c0.0065,0.1208 0.0469,0.2163 0.1213,0.2864 0.0742,0.0703 0.1611,0.1054 0.2608,0.1054 0.1616,0 0.271,-0.0686 0.3281,-0.2058l0.2009 0.0834c-0.0391,0.093 -0.1036,0.1709 -0.1934,0.2338 -0.0898,0.0629 -0.2,0.0943 -0.3307,0.0943l0 0zm-0.3723 -0.7837l0.6955 0c-0.0048,-0.0686 -0.0363,-0.1339 -0.0943,-0.1959 -0.058,-0.0621 -0.144,-0.0932 -0.2583,-0.0932 -0.0833,0 -0.1556,0.0262 -0.2168,0.0785 -0.0612,0.0523 -0.1033,0.1224 -0.1261,0.2106l0 0zm1.9446 0.7446l-0.2252 0 0 -1.7537 0.5976 0c0.1486,0 0.2772,0.0494 0.3857,0.1482 0.1086,0.0988 0.1629,0.2233 0.1629,0.3735 0,0.1225 -0.0401,0.2307 -0.12,0.3245 -0.08,0.094 -0.1796,0.1531 -0.2989,0.1776l-0.0048 0.0073 0.4922 0.7128 0 0.0097 -0.2669 0.0001 -0.4727 -0.7103 -0.2499 0 0 0.7103zm0 -1.5381l0 0.6171 0.3626 0c0.0898,0 0.1669,-0.0294 0.2314,-0.0882 0.0645,-0.0587 0.0967,-0.1329 0.0967,-0.2228 0,-0.0768 -0.0285,-0.1469 -0.0857,-0.2106 -0.0571,-0.0637 -0.1331,-0.0955 -0.2278,-0.0955l-0.3772 0zm1.6582 1.5772c-0.1813,0 -0.3287,-0.0603 -0.4422,-0.1812 -0.1134,-0.1209 -0.1701,-0.2736 -0.1701,-0.458 0,-0.1748 0.0551,-0.325 0.1653,-0.4506 0.1102,-0.1258 0.251,-0.1887 0.4225,-0.1887 0.178,0 0.3204,0.058 0.4273,0.174 0.107,0.1159 0.1605,0.271 0.1605,0.4653l-0.0025 0.0417 -0.9479 0c0.0067,0.1208 0.0471,0.2163 0.1213,0.2864 0.0743,0.0703 0.1612,0.1054 0.2609,0.1054 0.1616,0 0.2709,-0.0686 0.3281,-0.2058l0.2009 0.0834c-0.0392,0.093 -0.1036,0.1709 -0.1935,0.2338 -0.0897,0.0629 -0.2,0.0943 -0.3306,0.0943l0 0zm-0.3723 -0.7837l0.6955 0c-0.0049,-0.0686 -0.0362,-0.1339 -0.0942,-0.1959 -0.058,-0.0621 -0.1442,-0.0932 -0.2584,-0.0932 -0.0833,0 -0.1556,0.0262 -0.2168,0.0785 -0.0613,0.0523 -0.1034,0.1224 -0.1261,0.2106l0 0zm1.4964 0.7837c-0.1273,0 -0.2338,-0.0367 -0.3195,-0.1102 -0.0857,-0.0734 -0.1286,-0.1706 -0.1286,-0.2914 0,-0.1306 0.0506,-0.2331 0.1518,-0.3075 0.1013,-0.0742 0.2262,-0.1113 0.3748,-0.1113 0.1321,0 0.2407,0.0245 0.3256,0.0734l0 -0.0342c0,-0.0883 -0.0302,-0.1589 -0.0906,-0.212 -0.0603,-0.0531 -0.1346,-0.0796 -0.2227,-0.0796 -0.0654,0 -0.1245,0.0155 -0.1776,0.0466 -0.0531,0.0311 -0.0894,0.0735 -0.1091,0.1273l-0.2057 -0.0882c0.0277,-0.0718 0.0824,-0.1383 0.164,-0.1996 0.0816,-0.0612 0.1894,-0.0918 0.3233,-0.0918 0.1535,0 0.2809,0.0449 0.3822,0.1347 0.1012,0.0898 0.1517,0.2163 0.1517,0.3796l0 0.7251 -0.2155 0 0 -0.1666 -0.0097 0c-0.0898,0.1372 -0.2212,0.2057 -0.3944,0.2057zm0.0368 -0.2057c0.0931,0 0.1776,-0.0346 0.2535,-0.1041 0.0759,-0.0693 0.1138,-0.1514 0.1138,-0.2462 -0.0636,-0.0522 -0.1592,-0.0783 -0.2865,-0.0783 -0.1094,0 -0.1918,0.0237 -0.2473,0.071 -0.0556,0.0474 -0.0834,0.1029 -0.0834,0.1665 0,0.0588 0.0253,0.1054 0.076,0.1397 0.0506,0.0343 0.1086,0.0514 0.1739,0.0514l0 0zm1.0506 -1.5871l0 1.7537 -0.2251 0 0 -1.7537 0.2251 0zm0.8058 1.7731c-0.1256,0 -0.2216,-0.0334 -0.2878,-0.1002 -0.0661,-0.067 -0.0991,-0.1617 -0.0991,-0.2842l0 -0.6295 -0.2107 0 0 -0.2057 0.2107 0 0 -0.3673 0.2254 0 0 0.3673 0.2939 0 0 0.2057 -0.2939 0 0 0.6123c0,0.1306 0.0538,0.196 0.1615,0.196 0.0408,0 0.0751,-0.0066 0.1029,-0.0196l0.0785 0.1935c-0.049,0.0212 -0.1095,0.0317 -0.1814,0.0317l0 0zm0.5683 -1.5208c-0.031,0.031 -0.0686,0.0466 -0.1127,0.0466 -0.044,0 -0.0816,-0.0156 -0.1127,-0.0466 -0.031,-0.0311 -0.0465,-0.0686 -0.0465,-0.1126 0,-0.0442 0.0155,-0.0817 0.0465,-0.1127 0.0311,-0.031 0.0687,-0.0465 0.1127,-0.0465 0.0441,0 0.0817,0.0155 0.1127,0.0465 0.031,0.031 0.0465,0.0685 0.0465,0.1127 0,0.044 -0.0155,0.0815 -0.0465,0.1126zm0 0.3012l0 1.2002 -0.2254 0 0 -1.2002 0.2254 0zm0.4948 1.2002l-0.2254 0 0 -1.2002 0.2154 0 0 0.1665 0.01 0c0.0342,-0.0571 0.0868,-0.1057 0.1578,-0.1456 0.0711,-0.0401 0.1417,-0.0601 0.2119,-0.0601 0.1862,0 0.3128,0.0767 0.3796,0.2302 0.0979,-0.1535 0.2376,-0.2302 0.4188,-0.2302 0.1422,0 0.2491,0.0454 0.3209,0.136 0.0718,0.0906 0.1078,0.2134 0.1078,0.3686l0 0.7348 -0.2253 0 0 -0.7006c0,-0.1208 -0.022,-0.2065 -0.0661,-0.2571 -0.0442,-0.0507 -0.1112,-0.076 -0.201,-0.076 -0.0881,0 -0.1611,0.0375 -0.219,0.1127 -0.0581,0.0751 -0.0871,0.1608 -0.0871,0.2572l0 0.6638 -0.2252 0 0 -0.7006c0,-0.1208 -0.0221,-0.2065 -0.0662,-0.2571 -0.044,-0.0507 -0.111,-0.076 -0.2007,-0.076 -0.0883,0 -0.1614,0.0375 -0.2193,0.1127 -0.058,0.0751 -0.0869,0.1608 -0.0869,0.2572l0 0.6638zm2.3805 0.0391c-0.1813,0 -0.3286,-0.0603 -0.442,-0.1812 -0.1135,-0.1209 -0.1703,-0.2736 -0.1703,-0.458 0,-0.1748 0.0551,-0.325 0.1653,-0.4506 0.1102,-0.1258 0.2511,-0.1887 0.4225,-0.1887 0.178,0 0.3204,0.058 0.4275,0.174 0.1069,0.1159 0.1603,0.271 0.1603,0.4653l-0.0025 0.0417 -0.9477 0c0.0065,0.1208 0.0469,0.2163 0.1211,0.2864 0.0744,0.0703 0.1614,0.1054 0.261,0.1054 0.1616,0 0.271,-0.0686 0.3282,-0.2058l0.2007 0.0834c-0.0392,0.093 -0.1036,0.1709 -0.1934,0.2338 -0.0899,0.0629 -0.2001,0.0943 -0.3307,0.0943l0 0zm-0.3722 -0.7837l0.6956 0c-0.005,-0.0686 -0.0364,-0.1339 -0.0943,-0.1959 -0.058,-0.0621 -0.1441,-0.0932 -0.2584,-0.0932 -0.0833,0 -0.1555,0.0262 -0.2167,0.0785 -0.0613,0.0523 -0.1033,0.1224 -0.1262,0.2106l0 0z"/>
   <path class="fil51" style="mask:url(#id10)" d="M30.9013 11.451l-26.929 0c-0.5388,0 -0.9757,0.4369 -0.9757,0.9757l0 4.293c0,0.5389 0.4369,0.9757 0.9757,0.9757l26.929 0c0.5388,0 0.9757,-0.4368 0.9757,-0.9757l0 -4.293c0,-0.5388 -0.4369,-0.9757 -0.9757,-0.9757z"/>
   <path class="fil35" d="M9.4762 20.3805c0,0.2414 -0.1958,0.4371 -0.4372,0.4371 -0.2414,0 -0.4372,-0.1957 -0.4372,-0.4371 0,-0.2415 0.1958,-0.4372 0.4372,-0.4372 0.2414,0 0.4372,0.1957 0.4372,0.4372z"/>
   <path class="fil34" d="M3.2683 19.2438c0,0.2897 -0.2349,0.5246 -0.5246,0.5246 -0.2898,0 -0.5246,-0.2349 -0.5246,-0.5246 0,-0.2897 0.2348,-0.5246 0.5246,-0.5246 0.2897,0 0.5246,0.2349 0.5246,0.5246z"/>
  </g>
  <path class="fil33" d="M3.4432 27.5939c0,0.3139 -0.2545,0.5684 -0.5684,0.5684 -0.3138,0 -0.5683,-0.2545 -0.5683,-0.5684 0,-0.3139 0.2545,-0.5683 0.5683,-0.5683 0.3139,0 0.5684,0.2544 0.5684,0.5683z"/>
 </g>
</svg>
